<svg width="60" height="60" viewBox="0 0 60 60" fill="none" xmlns="http://www.w3.org/2000/svg">
<g clip-path="url(#clip0)">
<path fill-rule="evenodd" clip-rule="evenodd" d="M58.8281 24.7557C58.181 24.7557 57.6562 25.2804 57.6562 25.9276V55.2262H2.34375V52.8823C2.34375 52.235 1.81898 51.7104 1.17188 51.7104C0.524766 51.7104 0 52.235 0 52.8823V56.3981C0 57.0453 0.524766 57.57 1.17188 57.57H58.8281C59.4752 57.57 60 57.0453 60 56.3981V25.9276C60 25.2804 59.4752 24.7557 58.8281 24.7557Z" fill="#575756"/>
<path fill-rule="evenodd" clip-rule="evenodd" d="M59.9998 13.0126C59.9954 12.8221 59.9437 12.631 59.8508 12.4646C59.8039 12.3807 59.7444 12.2998 59.6779 12.2299L50.7202 2.79503C50.4989 2.56195 50.1916 2.42999 49.8703 2.42999H34.3676H25.8865H10.1295C9.80813 2.42999 9.50086 2.56195 9.27961 2.79503L0.322031 12.2299C0.202266 12.3555 0.108984 12.5129 0.0560156 12.6782C0.0193359 12.7926 0 12.9165 0 13.0367V43.5073C0 44.1545 0.524766 44.6791 1.17188 44.6791C1.81898 44.6791 2.34375 44.1545 2.34375 43.5073V14.2086H21.919V20.4702C21.919 21.1174 22.4438 21.6421 23.0909 21.6421H36.9091C37.5563 21.6421 38.081 21.1174 38.081 20.4702V14.2086H57.6562V16.5526C57.6562 17.1998 58.181 17.7245 58.8281 17.7245C59.4752 17.7245 60 17.1998 60 16.5526C60 16.5526 60 13.0373 60 13.0367C60 13.0287 59.9999 13.0206 59.9998 13.0126ZM33.4696 4.77374L35.3798 11.8649H24.6602L26.7615 4.77374H33.4696ZM10.6328 4.77374H24.317L22.2157 11.8649H3.90035L10.6328 4.77374ZM35.7373 19.2983H24.2627V14.2086H35.7373V19.2983ZM37.807 11.8649L35.8969 4.77374H49.3671L56.0995 11.8649H37.807Z" fill="#575756"/>
<path fill-rule="evenodd" clip-rule="evenodd" d="M19.2309 46.42H24.5202C25.1673 46.42 25.6921 45.8953 25.6921 45.2481V37.4618H28.0938C28.0948 37.4618 28.0954 37.4618 28.0962 37.4618C28.7434 37.4618 29.2681 36.9371 29.2681 36.2899C29.2681 35.9583 29.1304 35.6589 28.909 35.4457L22.7329 28.8198C22.5113 28.582 22.2008 28.4469 21.8756 28.4469C21.5506 28.4469 21.24 28.5819 21.0184 28.8198L14.8002 35.4909C14.482 35.8322 14.3967 36.3295 14.5828 36.7574C14.7689 37.1851 15.1909 37.4619 15.6574 37.4619H18.0592V45.2482C18.0591 45.8953 18.5838 46.42 19.2309 46.42ZM21.8756 31.3374L25.3996 35.118H24.5202C23.873 35.118 23.3483 35.6427 23.3483 36.2899V44.0762H20.4028V36.2899C20.4028 35.6427 19.8782 35.118 19.2309 35.118H18.3516L21.8756 31.3374Z" fill="#575756"/>
<path fill-rule="evenodd" clip-rule="evenodd" d="M35.4798 46.42H40.7691C41.4163 46.42 41.9409 45.8953 41.9409 45.2481V37.4618H44.3426C44.3435 37.4618 44.3442 37.4618 44.3449 37.4618C44.9922 37.4618 45.5168 36.9371 45.5168 36.2899C45.5168 35.9583 45.3791 35.6589 45.1577 35.4457L38.9818 28.8198C38.7601 28.582 38.4497 28.4469 38.1245 28.4469C37.7994 28.4469 37.4889 28.5819 37.2674 28.8198L31.0491 35.4909C30.7309 35.8322 30.6456 36.3295 30.8317 36.7574C31.0178 37.1851 31.4399 37.4619 31.9063 37.4619H34.3081V45.2482C34.3079 45.8953 34.8326 46.42 35.4798 46.42ZM38.1244 31.3374L41.6482 35.118H40.769C40.1218 35.118 39.5971 35.6427 39.5971 36.2899V44.0762H36.6516V36.2899C36.6516 35.6427 36.1268 35.118 35.4797 35.118H34.6003L38.1244 31.3374Z" fill="#575756"/>
<path fill-rule="evenodd" clip-rule="evenodd" d="M15.6573 51.4705H44.3424C44.9896 51.4705 45.5143 50.9458 45.5143 50.2986C45.5143 49.6514 44.9896 49.1267 44.3424 49.1267H15.6573C15.0101 49.1267 14.4854 49.6514 14.4854 50.2986C14.4854 50.9458 15.0102 51.4705 15.6573 51.4705Z" fill="#575756"/>
<path fill-rule="evenodd" clip-rule="evenodd" d="M1.17188 49.3667C1.81734 49.3667 2.34387 48.8403 2.34387 48.1948C2.34387 47.5494 1.81734 47.0229 1.17188 47.0229C0.526523 47.0229 0 47.5494 0 48.1948C0 48.8403 0.526523 49.3667 1.17188 49.3667Z" fill="#575756"/>
<path fill-rule="evenodd" clip-rule="evenodd" d="M58.8281 20.0682C58.1827 20.0682 57.6562 20.5946 57.6562 21.2401C57.6562 21.8856 58.1827 22.412 58.8281 22.412C59.4736 22.412 60 21.8856 60 21.2401C60 20.5946 59.4736 20.0682 58.8281 20.0682Z" fill="#575756"/>
</g>
<defs>
<clipPath id="clip0">
<rect width="60" height="60" fill="white"/>
</clipPath>
</defs>
</svg>
