<svg width="100" height="100" viewBox="0 0 100 100" fill="none" xmlns="http://www.w3.org/2000/svg">
<g clip-path="url(#clip0)">
<path d="M30.4685 72.2661C29.3904 72.2661 28.5154 73.1411 28.5154 74.2192C28.5154 75.2974 29.3904 76.1724 30.4685 76.1724C31.5467 76.1724 32.4217 75.2974 32.4217 74.2192C32.4217 73.1411 31.5467 72.2661 30.4685 72.2661Z" fill="#575756"/>
<path d="M87.9185 37.1097L99.4281 25.6001C99.9123 25.1159 100.107 24.4136 99.9427 23.7491C99.7781 23.0845 99.2773 22.5548 98.623 22.3528L70.5957 13.7024C68.0691 5.58115 60.5597 0.000488281 51.9529 0.000488281C43.9521 0.000488281 36.7966 4.87646 33.8351 12.2319L1.37145 22.3546C0.718912 22.5581 0.220084 23.0882 0.0566075 23.7521C-0.106869 24.4157 0.0884435 25.1169 0.571842 25.6003L12.3841 37.4126L4.93415 49.8296C4.62926 50.3376 4.57165 50.9565 4.77712 51.5122C4.98258 52.0679 5.42926 52.5001 5.99137 52.6874L16.7966 56.289V86.3284C16.7966 87.1425 17.3017 87.8712 18.064 88.1571C24.6709 90.6345 49.2187 99.8411 49.3506 99.8878C49.7381 100.024 50.1746 100.043 50.6002 99.9052C50.6058 99.9032 50.6117 99.902 50.6174 99.9001L85.7736 88.1813C86.5711 87.9155 87.1091 87.169 87.1091 86.3284V55.4847L98.6322 51.8636C99.2838 51.6589 99.781 51.1288 99.9437 50.4655C100.106 49.8022 99.9107 49.1022 99.4279 48.6192L87.9185 37.1097ZM71.4841 19.5317C71.4841 19.0354 71.4632 18.5403 71.4259 18.0468L94.374 25.1298L84.6285 34.8751L68.705 29.5679C70.5082 26.554 71.4841 23.0763 71.4841 19.5317ZM37.173 14.4481C39.3412 8.14307 45.2808 3.90674 51.9529 3.90674C59.1406 3.90674 65.3746 8.76846 67.1127 15.7294C67.4215 16.9663 67.5779 18.2456 67.5779 19.5317C67.5779 23.1595 66.374 26.5597 64.0959 29.3661C61.1121 33.0462 56.6861 35.1567 51.9529 35.1567C46.8365 35.1567 42.0375 32.6454 39.1144 28.4372C37.2916 25.8188 36.3279 22.7392 36.3279 19.5317C36.3279 17.7874 36.6121 16.0771 37.173 14.4481ZM5.61794 25.1222L32.6297 16.6995C32.4941 17.6327 32.4216 18.578 32.4216 19.5315C32.4216 22.6763 33.1666 25.7222 34.5865 28.4704L15.3711 34.8751L5.61794 25.1222ZM9.53649 49.7515L15.7123 39.4581L47.0722 49.9114L40.8966 60.2048C37.548 59.0886 13.1119 50.9431 9.53649 49.7515ZM48.0466 95.229L20.7029 84.9751V57.5911C42.2166 64.7243 41.166 64.5065 41.765 64.5065C42.4365 64.5065 43.0795 64.1591 43.4402 63.5581L48.0466 55.8802V95.229ZM49.9998 46.7698L21.0201 37.1101L36.8002 31.8503C40.4935 36.3907 46.0535 39.063 51.9529 39.063C57.4103 39.063 62.5394 36.8171 66.2287 32.8601L78.9795 37.1099L49.9998 46.7698ZM83.2029 84.9208L51.9529 95.3374V54.396L58.8769 63.0503C59.3806 63.6798 60.2191 63.9349 60.9877 63.6935L83.2029 56.7124V84.9208ZM61.092 59.5663L53.2748 49.7956L84.6285 39.3444L94.3871 49.103L61.092 59.5663Z" fill="#575756"/>
<path d="M42.8732 76.6011L38.5295 74.9722C37.5195 74.5937 36.3937 75.1052 36.0148 76.1152C35.6361 77.1253 36.1478 78.2511 37.1578 78.6298L41.5015 80.2587C42.5136 80.638 43.6381 80.124 44.0162 79.1158C44.3949 78.1058 43.8832 76.9798 42.8732 76.6011Z" fill="#575756"/>
<path d="M42.8731 84.9448L31.1543 80.5503C30.1443 80.1716 29.0186 80.6833 28.6397 81.6932C28.2607 82.7032 28.7727 83.8292 29.7826 84.2079L41.5014 88.6024C41.7274 88.6872 41.959 88.7274 42.1869 88.7274C42.9777 88.7274 43.7219 88.2436 44.016 87.4595C44.3949 86.4493 43.8832 85.3235 42.8731 84.9448Z" fill="#575756"/>
<path d="M63.0998 12.2911C62.3371 11.5282 61.1004 11.5284 60.3375 12.2911L49.9998 22.629L47.4746 20.1038C46.7119 19.3411 45.4752 19.3411 44.7123 20.1038C43.9494 20.8665 43.9496 22.1032 44.7123 22.8661L48.6188 26.7721C49.3815 27.5348 50.6182 27.5348 51.3811 26.7721L63.0998 15.0534C63.8625 14.2907 63.8625 13.054 63.0998 12.2911Z" fill="#575756"/>
</g>
<defs>
<clipPath id="clip0">
<rect width="100" height="100" fill="white"/>
</clipPath>
</defs>
</svg>
