<svg width="60" height="60" viewBox="0 0 60 60" fill="none" xmlns="http://www.w3.org/2000/svg">
<path d="M10.0493 10.0781H10.0809C10.7282 10.0781 11.2528 9.55353 11.2528 8.90625C11.2528 8.25897 10.7282 7.73438 10.0809 7.73438H10.0493C9.4025 7.73438 8.87744 8.25897 8.87744 8.90625C8.87744 9.55353 9.40204 10.0781 10.0493 10.0781Z" fill="#575756"/>
<path d="M58.8281 45.2344H58.125V11.25C58.125 9.31137 56.548 7.73438 54.6094 7.73438H14.7643C14.1174 7.73438 13.5924 8.25897 13.5924 8.90625C13.5924 9.55353 14.1174 10.0781 14.7643 10.0781H54.6094C55.2557 10.0781 55.7812 10.6036 55.7812 11.25H4.21875C4.21875 10.6036 4.74426 10.0781 5.39062 10.0781H6.68243C7.32971 10.0781 7.85431 9.55353 7.85431 8.90625C7.85431 8.25897 7.32971 7.73438 6.68243 7.73438H5.39062C3.452 7.73438 1.875 9.31137 1.875 11.25V45.2344H1.17188C0.524597 45.2344 0 45.7594 0 46.4062V48.75C0 50.6886 1.577 52.2656 3.51562 52.2656H56.4844C58.423 52.2656 60 50.6886 60 48.75V46.4062C60 45.759 59.4754 45.2344 58.8281 45.2344ZM4.21875 13.5938H55.7812V41.7188H4.21875V13.5938ZM4.21875 44.0625H55.7812V45.2344H36.6293C36.3821 45.2344 36.1409 45.3127 35.9409 45.4582L35.094 46.0735H24.906L24.0591 45.4582C23.8591 45.3127 23.6179 45.2344 23.3702 45.2344H4.21875V44.0625ZM56.4844 49.9219H3.51562C2.86926 49.9219 2.34375 49.3964 2.34375 48.75V47.5781H22.9898L23.8367 48.1934C24.0367 48.3389 24.278 48.4172 24.5251 48.4172H35.4749C35.7225 48.4172 35.9633 48.3389 36.1638 48.1934L37.0107 47.5781H57.6567V48.75C57.6562 49.3964 57.1307 49.9219 56.4844 49.9219Z" fill="#575756"/>
<path d="M41.3103 21.6431C41.3099 21.6403 41.3094 21.638 41.309 21.6353C41.303 21.5918 41.2939 21.5492 41.2829 21.5062C41.2801 21.4948 41.2769 21.4838 41.2737 21.4723C41.2636 21.4375 41.2517 21.4037 41.2385 21.3698C41.2343 21.3583 41.2302 21.3474 41.2256 21.3364C41.2073 21.2938 41.1872 21.2517 41.1638 21.2109C41.14 21.1702 41.1135 21.1318 41.086 21.0951C41.0787 21.0851 41.0709 21.0759 41.0631 21.0663C41.0407 21.0379 41.0174 21.0109 40.9926 20.9857C40.9839 20.9766 40.9757 20.9679 40.967 20.9596C40.9359 20.9294 40.9038 20.9006 40.87 20.874C40.8672 20.8717 40.8649 20.8695 40.8622 20.8676C40.8242 20.8383 40.7844 20.8122 40.7432 20.788C40.7404 20.7861 40.7377 20.7839 40.7345 20.782L30.5858 14.9226C30.2233 14.7134 29.7765 14.7134 29.414 14.9226L19.2649 20.782C19.2621 20.7839 19.2599 20.7861 19.2571 20.7875C19.2155 20.8118 19.1756 20.8383 19.1372 20.8676C19.1349 20.8695 19.1331 20.8713 19.1312 20.8727C19.0964 20.8997 19.0635 20.929 19.0323 20.9601C19.0237 20.9683 19.0154 20.9766 19.0076 20.9853C18.9825 21.0109 18.9591 21.0384 18.9362 21.0667C18.9284 21.0764 18.9211 21.0851 18.9138 21.0947C18.8863 21.1318 18.8598 21.1702 18.836 21.2109C18.8126 21.2521 18.7925 21.2943 18.7742 21.3364C18.7696 21.3474 18.7655 21.3588 18.7614 21.3698C18.7476 21.4037 18.7362 21.438 18.7261 21.4723C18.7229 21.4838 18.7197 21.4948 18.7165 21.5062C18.706 21.5492 18.6968 21.5918 18.6909 21.6353C18.6904 21.638 18.6895 21.6408 18.6895 21.6435C18.6831 21.6911 18.6803 21.7392 18.6799 21.7868C18.6799 21.7905 18.679 21.7937 18.679 21.7969V33.5156C18.679 33.9345 18.9023 34.3213 19.2649 34.5305L29.414 40.3899C29.4172 40.3917 29.4199 40.3926 29.4231 40.3944C29.4648 40.4183 29.5074 40.4393 29.5518 40.4576C29.555 40.459 29.5582 40.4599 29.5609 40.4613C29.6007 40.4773 29.6419 40.491 29.6841 40.5025C29.696 40.5061 29.7074 40.5089 29.7193 40.5116C29.7536 40.5203 29.7889 40.5272 29.8246 40.5322C29.8365 40.5341 29.8484 40.5364 29.8607 40.5377C29.9065 40.5432 29.9528 40.5469 29.9999 40.5469C30.0471 40.5469 30.0933 40.5432 30.1391 40.5377C30.1514 40.5364 30.1633 40.5341 30.1757 40.5322C30.2109 40.5272 30.2462 40.5203 30.281 40.5116C30.2924 40.5089 30.3043 40.5061 30.3158 40.5025C30.3579 40.491 30.3991 40.4773 30.4389 40.4613C30.4421 40.4599 30.4449 40.459 30.4481 40.4576C30.4925 40.4393 30.5355 40.4178 30.5767 40.3944C30.5799 40.3926 30.5831 40.3917 30.5858 40.3899L40.7349 34.5305C41.0975 34.3213 41.3209 33.9345 41.3209 33.5156V21.7969C41.3209 21.7937 41.3204 21.79 41.3199 21.7868C41.3195 21.7387 41.3167 21.6911 41.3103 21.6431ZM29.9999 26.3031L27.2693 24.7266L35.0742 20.2203L37.8048 21.7969L29.9999 26.3031ZM29.9999 17.2907L32.7305 18.8672L24.9256 23.3734L22.1946 21.7969L29.9999 17.2907ZM21.0227 23.8266L24.3461 25.7451C24.3474 25.746 24.3488 25.7465 24.3497 25.7474L28.828 28.3328V37.3453L21.0227 32.8391V23.8266ZM31.1718 37.3453V28.3328L38.9767 23.8266V32.8391L31.1718 37.3453Z" fill="#575756"/>
<path d="M53.4375 38.2031H48.6287C47.9814 38.2031 47.4568 38.7277 47.4568 39.375C47.4568 40.0218 47.9814 40.5469 48.6287 40.5469H53.4375C54.0843 40.5469 54.6093 40.0218 54.6093 39.375C54.6093 38.7277 54.0847 38.2031 53.4375 38.2031Z" fill="#575756"/>
<path d="M45.2618 38.2031H45.2339C44.5871 38.2031 44.062 38.7282 44.062 39.375C44.062 40.0223 44.5871 40.5469 45.2339 40.5469H45.2618C45.9086 40.5469 46.4337 40.0223 46.4337 39.375C46.4337 38.7282 45.9086 38.2031 45.2618 38.2031Z" fill="#575756"/>
</svg>
