<svg width="60" height="60" viewBox="0 0 60 60" fill="none" xmlns="http://www.w3.org/2000/svg">
<g clip-path="url(#clip0)">
<path d="M56.3745 31.6092C55.9386 31.6092 55.5016 31.6857 55.0894 31.8356C54.9837 29.5084 53.2173 28.2925 51.4716 28.2925C50.9612 28.2925 50.4492 28.3966 49.9774 28.6018C49.4449 27.025 48.0007 26.2068 46.5695 26.2068C46.1357 26.2068 45.7009 26.2826 45.2903 26.4312V23.917V3.19874C45.2903 1.4373 43.8572 0.00421143 42.0957 0.00421143H15.3866C13.6252 0.00421143 12.1922 1.4373 12.1922 3.19874V11.6952H7.37379L6.82699 8.79398C6.71133 8.1805 6.13699 7.77116 5.52574 7.85015C5.4757 7.8437 1.17188 7.83913 1.17188 7.83913C0.524648 7.83913 0 8.36378 0 9.01101C0 9.65823 0.524648 10.1829 1.17188 10.1829H4.70379L8.04434 27.907C8.14875 28.4609 8.6325 28.8619 9.19594 28.8619H10.4739C10.7529 29.8378 11.3713 30.6715 12.1922 31.2278V48.7371C12.1922 50.4968 13.6253 51.9284 15.3844 51.9284L37.0223 51.9705C37.0669 52.0157 37.1105 52.0608 37.1511 52.1064C38.8448 53.9968 38.8448 55.5905 38.8448 57.6083C38.8448 58.9248 39.9143 59.9959 41.2289 59.9959H43.225C43.8722 59.9959 44.3968 59.4712 44.3968 58.824C44.3968 58.1768 43.8722 57.6521 43.225 57.6521H41.2289C41.2111 57.6521 41.1886 57.6315 41.1886 57.6083C41.1886 55.3921 41.1886 53.1005 38.8972 50.543C38.353 49.9349 37.6767 49.4412 37.0227 48.9636C35.7918 48.065 35.0443 47.4632 35.0443 46.6846V38.2084C35.0502 37.8864 35.1224 37.6405 35.2331 37.5657C35.3824 37.465 35.7743 37.4564 36.3157 37.6655C37.3658 38.0682 38.0445 39.0598 38.0445 40.1916V43.8881C38.0445 44.5353 38.5691 45.06 39.2163 45.06C39.8636 45.06 40.3882 44.5353 40.3882 43.8881V40.1916V23.917C40.3882 22.5632 41.453 22.4946 41.6665 22.4946C41.8802 22.4946 42.9465 22.5632 42.9465 23.917V37.3418C42.9465 37.989 43.4712 38.5137 44.1184 38.5137C44.7656 38.5137 45.2903 37.989 45.2903 37.3418V29.9719C45.2903 28.6192 46.3559 28.5506 46.5695 28.5506C46.9071 28.5506 47.2287 28.671 47.4518 28.8807C47.7151 29.1284 47.8487 29.4955 47.8487 29.9719V38.5706C47.8487 39.2178 48.3734 39.7425 49.0206 39.7425C49.6678 39.7425 50.1925 39.2178 50.1925 38.5706V32.0576C50.1925 30.7049 51.258 30.6363 51.4717 30.6363C51.8093 30.6363 52.1309 30.7567 52.354 30.9664C52.6173 31.2141 52.7509 31.5812 52.7509 32.0576V39.7996C52.7509 40.4468 53.2755 40.9714 53.9228 40.9714C54.57 40.9714 55.0946 40.4468 55.0946 39.7996V35.3756C55.0946 34.0218 56.1609 33.9531 56.3746 33.9531C56.5887 33.9531 57.6564 34.0216 57.6564 35.3756V38.9494V39.7365V47.0816C57.4699 48.729 57.085 49.4778 56.7124 50.2023C56.2637 51.0751 55.7998 51.9777 55.7998 53.8521V57.6084C55.7998 57.6288 55.7766 57.6523 55.7561 57.6523H53.75C53.1028 57.6523 52.5782 58.1769 52.5782 58.8241C52.5782 59.4714 53.1028 59.996 53.75 59.996H55.7561C57.0724 59.996 58.1435 58.9249 58.1435 57.6084V53.8521C58.1435 52.5449 58.4034 52.0392 58.7968 51.274C59.227 50.437 59.7625 49.3956 59.9932 47.2731C59.9978 47.231 60.0001 47.1887 60.0001 47.1464V39.7366V38.9495V35.3757C60 32.903 58.1762 31.6092 56.3745 31.6092ZM22.0054 2.34796H35.4772V3.58077C35.4772 4.26234 34.9228 4.81687 34.2412 4.81687H23.2414C22.5599 4.81687 22.0055 4.26234 22.0055 3.58077V2.34796H22.0054ZM10.4741 26.5181H10.1675L7.81605 14.0389H32.712L30.3633 26.5181H30.0538C29.5431 24.7334 27.898 23.4226 25.9514 23.4226C24.0033 23.4226 22.3569 24.7332 21.846 26.5181H18.6819C18.1712 24.7334 16.5261 23.4226 14.5795 23.4226C12.6315 23.4227 10.9852 24.7334 10.4741 26.5181ZM27.8749 27.69C27.8749 28.7524 27.0121 29.6169 25.9514 29.6169C24.889 29.6169 24.0246 28.7525 24.0246 27.69C24.0246 26.6293 24.889 25.7664 25.9514 25.7664C27.0121 25.7665 27.8749 26.6293 27.8749 27.69ZM12.6529 27.69C12.6529 26.6293 13.5172 25.7664 14.5796 25.7664C15.6403 25.7664 16.5032 26.6292 16.5032 27.69C16.5032 28.7524 15.6403 29.6169 14.5796 29.6169C13.5172 29.6169 12.6529 28.7524 12.6529 27.69ZM15.3866 49.5846C14.9255 49.5846 14.5359 49.1965 14.5359 48.7371V46.0696H32.7006V46.6846C32.7006 47.9346 33.3216 48.8661 34.1048 49.6212L15.3866 49.5846ZM42.9466 20.3755C42.5358 20.2268 42.1007 20.1509 41.6666 20.1509C39.8667 20.1509 38.0446 21.4445 38.0446 23.917V35.9211C37.7681 35.7476 37.4719 35.5985 37.1575 35.4779C35.9182 34.9996 34.7692 35.0511 33.9219 35.6231C33.3768 35.9911 32.7224 36.7336 32.7008 38.1812C32.7008 38.1869 32.7007 38.1928 32.7007 38.1987V43.7258H14.5359V31.9597C14.5506 31.9598 14.565 31.9607 14.5796 31.9607C16.5265 31.9607 18.1719 30.6485 18.6823 28.8619H21.8457C22.3564 30.6485 24.003 31.9607 25.9515 31.9607C27.8984 31.9607 29.5438 30.6485 30.0541 28.8619H31.3352C31.8989 28.8619 32.3827 28.4606 32.4869 27.9068L35.2768 13.0839C35.3413 12.7411 35.2499 12.3875 35.0272 12.1191C34.8046 11.8506 34.474 11.6953 34.1252 11.6953H14.5359V3.19874C14.5359 2.72964 14.9175 2.34796 15.3866 2.34796H19.6615V3.58077C19.6615 5.55468 21.2674 7.16062 23.2412 7.16062H34.241C36.2149 7.16062 37.8207 5.55468 37.8207 3.58077V2.34796H42.0956C42.5647 2.34796 42.9464 2.72964 42.9464 3.19874V20.3755H42.9466Z" fill="#575756"/>
<path d="M20.2654 23.2821C20.9126 23.2821 21.4373 22.7575 21.4373 22.1103V17.8058C21.4373 17.1586 20.9126 16.634 20.2654 16.634C19.6182 16.634 19.0935 17.1586 19.0935 17.8058V22.1103C19.0935 22.7575 19.6182 23.2821 20.2654 23.2821Z" fill="#575756"/>
<path d="M15.7515 19.6525V17.8058C15.7515 17.1586 15.2268 16.634 14.5796 16.634C13.9324 16.634 13.4077 17.1586 13.4077 17.8058V19.6525C13.4077 20.2997 13.9324 20.8244 14.5796 20.8244C15.2268 20.8244 15.7515 20.2997 15.7515 19.6525Z" fill="#575756"/>
<path d="M25.9514 20.8244C26.5986 20.8244 27.1233 20.2997 27.1233 19.6525V17.8058C27.1233 17.1586 26.5986 16.634 25.9514 16.634C25.3042 16.634 24.7795 17.1586 24.7795 17.8058V19.6525C24.7795 20.2997 25.3042 20.8244 25.9514 20.8244Z" fill="#575756"/>
<path d="M48.4893 57.652C47.842 57.652 47.3174 58.1767 47.3174 58.8239C47.3174 59.4711 47.842 59.9958 48.4893 59.9958H48.4925C49.1398 59.9958 49.6628 59.4711 49.6628 58.8239C49.6628 58.1767 49.1365 57.652 48.4893 57.652Z" fill="#575756"/>
</g>
<defs>
<clipPath id="clip0">
<rect width="60" height="60" fill="white"/>
</clipPath>
</defs>
</svg>
