<svg width="60" height="60" viewBox="0 0 60 60" fill="none" xmlns="http://www.w3.org/2000/svg">
<g clip-path="url(#clip0)">
<path d="M54.1992 24.1826H43.2707V1.17188C43.2707 0.524766 42.746 0 42.0988 0H17.9012C17.254 0 16.7293 0.524766 16.7293 1.17188V24.1826H5.80078C5.15355 24.1826 4.62891 24.7073 4.62891 25.3545V32.1775C4.62891 32.8246 5.15355 33.3493 5.80078 33.3493C6.44801 33.3493 6.97266 32.8246 6.97266 32.1775V26.5263H12.7734V34.3963C12.7734 35.2939 13.7914 35.867 14.5596 35.3944L17.901 33.3377L21.2392 35.3941C21.6007 35.6166 22.0545 35.6265 22.4252 35.4195C22.796 35.2124 23.0257 34.8211 23.0257 34.3964V26.5264H28.8298V36.2522C28.7544 36.3184 28.6773 36.3867 28.5959 36.4591C27.3551 37.563 25.2784 39.4105 20.9432 40.4062C20.4109 40.5285 20.0336 41.0023 20.0336 41.5484V47.1588C20.0336 47.5652 20.0562 47.966 20.0966 48.3621H6.97266V42.701C6.97266 42.0539 6.44801 41.5291 5.80078 41.5291C5.15355 41.5291 4.62891 42.0539 4.62891 42.701V49.534C4.62891 50.1811 5.15355 50.7059 5.80078 50.7059H20.588C21.062 52.1604 21.8387 53.5277 22.9134 54.7952C24.4279 56.5813 26.5034 58.187 29.4454 59.8486C29.6242 59.9496 29.8229 60.0001 30.0216 60.0001C30.2202 60.0001 30.4188 59.9496 30.5975 59.8488C33.5409 58.1876 35.6174 56.5819 37.1325 54.7954C38.2075 53.5279 38.9844 52.1604 39.4584 50.7059H54.1992C54.8464 50.7059 55.3711 50.1811 55.3711 49.534V25.3547C55.3711 24.7073 54.8464 24.1826 54.1992 24.1826ZM39.318 26.5263H44.8828V32.299L42.713 30.9635C42.3361 30.7316 41.8608 30.7316 41.484 30.9637L39.318 32.2982V26.5263ZM27.2176 2.34375H32.7824V8.11547L30.6163 6.78105C30.2396 6.54914 29.7643 6.54902 29.3875 6.78082L27.2176 8.11641V2.34375ZM19.0731 2.34375H24.8739V10.2137C24.8739 10.6383 25.1034 11.0297 25.4741 11.2366C25.8449 11.4439 26.2985 11.4342 26.66 11.2117L30.0014 9.15504L33.3397 11.2114C33.5278 11.3272 33.741 11.3855 33.9544 11.3855C34.151 11.3855 34.3479 11.336 34.5257 11.2366C34.8964 11.0296 35.1261 10.6383 35.1261 10.2136V2.34375H40.9269V24.1826H19.0731V2.34375ZM20.682 32.298L18.516 30.9636C18.1391 30.7317 17.6639 30.7316 17.287 30.9634L15.1172 32.299V26.5263H20.682V32.298ZM30.0218 57.4758C24.7411 54.3696 22.3774 51.1697 22.3774 47.1587V42.4625C26.5458 41.3277 28.7651 39.4425 30.0224 38.3269C31.2797 39.4409 33.5004 41.3275 37.669 42.4624V47.1587C37.669 47.8923 37.5891 48.5986 37.4275 49.2823C37.4257 49.2901 37.4238 49.2979 37.4223 49.3057C36.694 52.3508 34.3274 54.9449 30.0218 57.4758ZM53.0273 48.3619H39.9498C39.9901 47.9658 40.0129 47.5651 40.0129 47.1586V41.5481C40.0129 41.002 39.6356 40.5282 39.1032 40.406C34.7722 39.4113 32.6938 37.5649 31.4518 36.4618C31.3542 36.3751 31.2627 36.2943 31.1735 36.2163V26.5263H36.9743V34.3963C36.9743 34.821 37.204 35.2124 37.5748 35.4193C37.9455 35.6265 38.3993 35.6167 38.7608 35.394L42.099 33.3376L45.4404 35.3943C46.2086 35.8669 47.2266 35.2939 47.2266 34.3962V26.5262H53.0273V48.3619Z" fill="#575756"/>
<path d="M34.1551 44.5763C33.6591 44.1606 32.9199 44.2258 32.5043 44.7218L28.8465 49.0868L27.402 47.8625C26.908 47.444 26.1686 47.505 25.7503 47.9988C25.3319 48.4925 25.3929 49.2319 25.8866 49.6505L28.2302 51.6369C28.4427 51.8169 28.7115 51.9147 28.9879 51.9147C29.021 51.9147 29.0543 51.9133 29.0876 51.9105C29.3984 51.8839 29.6858 51.7346 29.8861 51.4955L34.3008 46.2272C34.7163 45.7311 34.6512 44.9921 34.1551 44.5763Z" fill="#575756"/>
<path d="M5.80078 38.6127C6.44801 38.6127 6.97266 38.0863 6.97266 37.4391C6.97266 36.7919 6.44801 36.2672 5.80078 36.2672C5.15355 36.2672 4.62891 36.792 4.62891 37.4391V37.4424C4.62891 38.0896 5.15355 38.6127 5.80078 38.6127Z" fill="#575756"/>
</g>
<defs>
<clipPath id="clip0">
<rect width="60" height="60" fill="white"/>
</clipPath>
</defs>
</svg>
