<svg width="60" height="60" viewBox="0 0 60 60" fill="none" xmlns="http://www.w3.org/2000/svg">
<g clip-path="url(#clip0)">
<path d="M27.1848 29.7981C21.2525 29.7981 16.4263 34.6245 16.4263 40.557C16.4263 46.4912 21.2525 51.319 27.1848 51.319C33.1189 51.319 37.9467 46.4911 37.9467 40.557C37.9467 34.6245 33.1188 29.7981 27.1848 29.7981ZM27.1848 48.9752C22.5449 48.9752 18.77 45.1988 18.77 40.557C18.77 35.9169 22.5449 32.1418 27.1848 32.1418C31.8266 32.1418 35.603 35.9168 35.603 40.557C35.603 45.1989 31.8266 48.9752 27.1848 48.9752Z" fill="#575756"/>
<path d="M30.5564 39.3851H28.3567V35.707C28.3567 35.0598 27.8319 34.5352 27.1848 34.5352C26.5377 34.5352 26.0129 35.0598 26.0129 35.707V40.557C26.0129 41.2042 26.5377 41.7288 27.1848 41.7288H30.5564C31.2035 41.7288 31.7283 41.2042 31.7283 40.557C31.7283 39.9097 31.2036 39.3851 30.5564 39.3851Z" fill="#575756"/>
<path d="M56.546 3.93726H23.6637C21.7591 3.93726 20.2097 5.48671 20.2097 7.39136V26.7151C18.8126 27.422 17.537 28.3351 16.4215 29.4129H11.6721C11.025 29.4129 10.5002 29.9375 10.5002 30.5848C10.5002 31.232 11.025 31.7566 11.6721 31.7566H14.4316C13.8595 32.583 13.3661 33.4673 12.9612 34.399H7.3902C6.74309 34.399 6.21832 34.9236 6.21832 35.5708C6.21832 36.2181 6.74309 36.7427 7.3902 36.7427H12.1577C11.9406 37.5976 11.7953 38.4807 11.7273 39.3851H1.17188C0.524766 39.3851 0 39.9097 0 40.5569C0 41.2042 0.524766 41.7288 1.17188 41.7288H11.7267C11.7946 42.6333 11.9407 43.5162 12.1577 44.3712H7.3902C6.74309 44.3712 6.21832 44.8958 6.21832 45.543C6.21832 46.1903 6.74309 46.7149 7.3902 46.7149H12.9589C13.3636 47.6466 13.8571 48.5308 14.4287 49.3573H11.6721C11.025 49.3573 10.5002 49.8819 10.5002 50.5291C10.5002 51.1764 11.025 51.701 11.6721 51.701H16.4177C19.2084 54.3995 23.0059 56.0626 27.1848 56.0626C34.6489 56.0626 40.8977 50.7607 42.3642 43.7251H56.546C58.4505 43.7251 60 42.1757 60 40.2711V7.39136C60 5.48671 58.4505 3.93726 56.546 3.93726ZM35.8472 6.28101H44.3624V16.9062L40.7729 14.4056C40.3703 14.1251 39.8355 14.1252 39.4329 14.4057L35.8471 16.9053V6.28101H35.8472ZM27.1848 53.719C19.9293 53.719 14.0265 47.8145 14.0265 40.5569C14.0265 33.3012 19.9293 27.3982 27.1848 27.3982C34.4422 27.3982 40.3464 33.3012 40.3464 40.5569C40.3464 47.8145 34.4421 53.719 27.1848 53.719ZM57.6562 40.2712C57.6562 40.8834 57.1582 41.3815 56.546 41.3815H42.6682C42.6826 41.1084 42.6902 40.8335 42.6902 40.5569C42.6902 32.0088 35.7346 25.0544 27.1849 25.0544C25.5724 25.0544 24.0168 25.3023 22.5536 25.7612V7.39136C22.5536 6.77917 23.0516 6.28101 23.6638 6.28101H33.5037V19.1508C33.5037 19.5873 33.7463 19.9877 34.1333 20.1896C34.5203 20.3917 34.9874 20.3618 35.3457 20.1121L40.1037 16.7954L44.8648 20.1123C45.065 20.2519 45.2993 20.3226 45.5347 20.3226C45.7202 20.3226 45.9064 20.2787 46.077 20.1896C46.4639 19.9876 46.7065 19.5873 46.7065 19.1508V6.28101H56.5464C57.1586 6.28101 57.6566 6.77905 57.6566 7.39136V40.2712H57.6562Z" fill="#575756"/>
<path d="M4.88232 31.7565H6.87873C7.52584 31.7565 8.0506 31.2319 8.0506 30.5847C8.0506 29.9374 7.52584 29.4128 6.87873 29.4128H4.88232C4.23521 29.4128 3.71045 29.9374 3.71045 30.5847C3.71045 31.2319 4.23521 31.7565 4.88232 31.7565Z" fill="#575756"/>
<path d="M6.87873 49.3573H4.88232C4.23521 49.3573 3.71045 49.8819 3.71045 50.5292C3.71045 51.1764 4.23521 51.701 4.88232 51.701H6.87873C7.52584 51.701 8.0506 51.1764 8.0506 50.5292C8.0506 49.8819 7.52596 49.3573 6.87873 49.3573Z" fill="#575756"/>
</g>
<defs>
<clipPath id="clip0">
<rect width="60" height="60" fill="white"/>
</clipPath>
</defs>
</svg>
