<svg width="60" height="60" viewBox="0 0 60 60" fill="none" xmlns="http://www.w3.org/2000/svg">
<path d="M49.8261 45.7909H45.3251C44.6778 45.7909 44.1532 46.3155 44.1532 46.9628C44.1532 47.61 44.6778 48.1346 45.3251 48.1346H49.8261C50.4734 48.1346 50.998 47.61 50.998 46.9628C50.998 46.3155 50.4734 45.7909 49.8261 45.7909Z" fill="#575756"/>
<path d="M42.6011 43.2747H49.826C50.4732 43.2747 50.9979 42.7501 50.9979 42.1028C50.9979 41.4556 50.4732 40.931 49.826 40.931H42.6011C41.9539 40.931 41.4293 41.4556 41.4293 42.1028C41.4293 42.7501 41.9539 43.2747 42.6011 43.2747Z" fill="#575756"/>
<path d="M24.0656 40.0641H11.7983C10.4414 40.0641 9.33752 41.168 9.33752 42.5249V45.674C9.33752 47.0309 10.4414 48.1348 11.7983 48.1348H24.0656C25.4226 48.1348 26.5265 47.0309 26.5265 45.674V42.5249C26.5264 41.168 25.4224 40.0641 24.0656 40.0641ZM24.1826 45.6739C24.1826 45.7362 24.1279 45.7909 24.0655 45.7909H11.7983C11.736 45.7909 11.6813 45.7362 11.6813 45.6739V42.5248C11.6813 42.4624 11.736 42.4077 11.7983 42.4077H24.0656C24.1258 42.4077 24.1827 42.4646 24.1827 42.5248V45.6739H24.1826Z" fill="#575756"/>
<path d="M58.8281 51.2186H56.0869V1.17188C56.0869 0.524648 55.5622 0 54.915 0H27.105C26.4578 0 25.9331 0.524648 25.9331 1.17188V18.7515H5.085C4.43777 18.7515 3.91312 19.2762 3.91312 19.9234V51.2187H1.17188C0.524648 51.2187 0 51.7433 0 52.3905V58.8281C0 59.4754 0.524648 60 1.17188 60H24.7366C25.3839 60 25.9085 59.4754 25.9085 58.8281C25.9085 58.1809 25.3839 57.6562 24.7366 57.6562H2.34375V53.5623H57.6562V57.6562H35.2601C34.6129 57.6562 34.0882 58.1809 34.0882 58.8281C34.0882 59.4754 34.6129 60 35.2601 60H58.8281C59.4754 60 60 59.4754 60 58.8281V52.3904C60 51.7432 59.4754 51.2186 58.8281 51.2186ZM38.3752 2.34375H43.6416V7.88953L41.6313 6.63246C41.2513 6.3948 40.7691 6.39469 40.389 6.63223L38.375 7.89047V2.34375H38.3752ZM28.2769 2.34375H36.0314V10.0045C36.0314 10.4305 36.2626 10.823 36.6352 11.0295C37.0077 11.2361 37.463 11.2241 37.8243 10.9984L41.0098 9.00809L44.1922 10.9982C44.382 11.1168 44.5976 11.1764 44.8136 11.1764C45.0089 11.1764 45.2045 11.1275 45.3814 11.0296C45.7541 10.8231 45.9853 10.4306 45.9853 10.0045V2.34375H53.7431V51.2186H38.7239V19.9234C38.7239 19.2762 38.1993 18.7515 37.552 18.7515H28.2769V2.34375ZM18.2617 21.0953H24.3752V27.6211L21.9397 26.0981C21.5597 25.8605 21.0772 25.8605 20.6971 26.0981L18.2617 27.6211V21.0953ZM6.25688 21.0953H15.918V29.736C15.918 30.1621 16.1493 30.5545 16.5219 30.761C16.8946 30.9676 17.35 30.9555 17.7111 30.7296L21.3185 28.4739L24.9259 30.7296C25.1156 30.8482 25.3313 30.9079 25.5472 30.9079C25.7426 30.9079 25.9382 30.859 26.1151 30.761C26.4878 30.5545 26.719 30.1621 26.719 29.736V21.0953H36.3802V51.2187H6.25688V21.0953Z" fill="#575756"/>
<path d="M29.9984 57.6562C29.3512 57.6562 28.8265 58.1809 28.8265 58.8281C28.8265 59.4754 29.3512 60 29.9984 60H30.0051C30.6523 60 31.1737 59.4754 31.1737 58.8281C31.1737 58.1809 30.6456 57.6562 29.9984 57.6562Z" fill="#575756"/>
</svg>
