<svg width="60" height="60" viewBox="0 0 60 60" fill="none" xmlns="http://www.w3.org/2000/svg">
<g clip-path="url(#clip0)">
<path d="M52.2656 43.7778C52.5737 43.7778 52.8763 43.6523 53.0942 43.4344C53.3121 43.2166 53.4375 42.914 53.4375 42.6059C53.4375 42.2974 53.3121 41.9952 53.0942 41.7773C52.8763 41.5594 52.5737 41.434 52.2656 41.434C51.9576 41.434 51.655 41.5594 51.4371 41.7773C51.2192 41.9952 51.0938 42.2974 51.0938 42.6059C51.0938 42.914 51.2192 43.2166 51.4371 43.4344C51.655 43.6523 51.9576 43.7778 52.2656 43.7778Z" fill="#F7A70A"/>
<path d="M1.17188 17.3438C1.47995 17.3438 1.78253 17.2183 2.00043 17.0004C2.21832 16.7825 2.34375 16.4799 2.34375 16.1719C2.34375 15.8638 2.21832 15.5612 2.00043 15.3433C1.78253 15.1254 1.47995 15 1.17188 15C0.8638 15 0.561218 15.1254 0.343323 15.3433C0.125427 15.5612 0 15.8638 0 16.1719C0 16.4799 0.125427 16.7825 0.343323 17.0004C0.561218 17.2183 0.8638 17.3438 1.17188 17.3438Z" fill="#F7A70A"/>
<path d="M56.4844 0H3.51562C1.577 0 0 1.577 0 3.51562V11.3672C0 12.0145 0.524597 12.5391 1.17188 12.5391C1.81915 12.5391 2.34375 12.0145 2.34375 11.3672V3.51562C2.34375 2.86926 2.86926 2.34375 3.51562 2.34375H56.4844C57.1307 2.34375 57.6562 2.86926 57.6562 3.51562V56.4844C57.6562 57.1307 57.1307 57.6562 56.4844 57.6562H53.4375V46.7578C53.4375 46.1105 52.9129 45.5859 52.2656 45.5859C51.6183 45.5859 51.0938 46.1105 51.0938 46.7578V57.6562H3.51562C2.86926 57.6562 2.34375 57.1307 2.34375 56.4844V21.1295C2.34375 20.4822 1.81915 19.9576 1.17188 19.9576C0.524597 19.9576 0 20.4822 0 21.1295V56.4844C0 58.423 1.577 60 3.51562 60H56.4844C58.423 60 60 58.423 60 56.4844V3.51562C60 1.577 58.423 0 56.4844 0Z" fill="#F7A70A"/>
<path d="M42.4219 21.5625V7.5C42.4219 6.85272 41.8973 6.32812 41.25 6.32812H18.75C18.1027 6.32812 17.5781 6.85272 17.5781 7.5V21.5625C17.5781 27.1912 21.3419 31.9569 26.4844 33.4772V46.9917L19.2439 51.5057C18.7999 51.7822 18.593 52.3196 18.7372 52.8227C18.8809 53.3253 19.3405 53.6719 19.8637 53.6719H40.166C40.6892 53.6719 41.1488 53.3253 41.2926 52.8227C41.4368 52.3196 41.2299 51.7822 40.7858 51.5057L33.5156 46.9734V33.4772C38.6581 31.9569 42.4219 27.1912 42.4219 21.5625ZM30.9966 14.2332C31.2122 14.5692 31.5839 14.7725 31.983 14.7725H35.1659L32.1176 18.8644L32.5356 17.1922C32.623 16.842 32.5447 16.4713 32.3222 16.187C32.1002 15.9023 31.7596 15.7361 31.3989 15.7361H28.3534L30.52 8.67188H32.9535L30.9174 13.1122C30.7512 13.4747 30.7809 13.8972 30.9966 14.2332ZM19.9219 21.5625V8.67188H28.0682L25.648 16.5642C25.5391 16.9199 25.605 17.3058 25.8261 17.6047C26.0472 17.9036 26.3969 18.0798 26.7686 18.0798H29.8979L28.4248 23.9735C28.2893 24.5155 28.5548 25.0777 29.0598 25.3166C29.2209 25.3931 29.3916 25.4297 29.561 25.4297C29.9217 25.4297 30.2742 25.2626 30.5013 24.9577L38.4398 14.3005C38.7044 13.9449 38.746 13.4706 38.5474 13.0746C38.3487 12.6787 37.9431 12.4287 37.5 12.4287H33.8095L35.5316 8.67188H40.0781V21.5625C40.0781 27.1198 35.5573 31.6406 30 31.6406C24.4427 31.6406 19.9219 27.1198 19.9219 21.5625ZM31.1719 33.9844V47.6239C31.1719 48.0281 31.3806 48.4044 31.7239 48.6182L36.0709 51.3281H23.9589L28.2761 48.6365C28.6194 48.4227 28.8281 48.0469 28.8281 47.6422V33.9844H31.1719Z" fill="#F7A70A"/>
</g>
<defs>
<clipPath id="clip0">
<rect width="60" height="60" fill="white"/>
</clipPath>
</defs>
</svg>
