<svg width="60" height="60" viewBox="0 0 60 60" fill="none" xmlns="http://www.w3.org/2000/svg">
<g clip-path="url(#clip0)">
<path d="M30.4493 10.1214C27.7084 7.83288 24.8666 7.8385 22.2312 10.138C21.7435 10.5635 21.6931 11.3037 22.1186 11.7914C22.5441 12.2791 23.2845 12.3295 23.772 11.904C25.5155 10.3828 27.1115 10.3878 28.9471 11.9205C29.1664 12.1035 29.4327 12.193 29.6976 12.1928C30.033 12.1928 30.3659 12.0496 30.5978 11.772C31.0125 11.2753 30.9461 10.5363 30.4493 10.1214Z" fill="#575756"/>
<path d="M58.6135 37.3203H38.2782C37.6311 37.3203 37.1063 37.845 37.1063 38.4922V42.9915L34.341 39.3606L34.9475 30.1771L50.9759 34.7755C51.0822 34.806 51.191 34.821 51.299 34.821C51.5506 34.821 51.7988 34.7399 52.0044 34.5851C52.2983 34.3636 52.471 34.0171 52.471 33.6491V28.4039C52.471 28.2568 52.4756 28.1191 52.4797 27.9893C52.522 26.6589 52.375 25.5641 50.1331 24.6129L47.6679 23.3141V19.1294C47.6679 18.4822 47.1432 17.9576 46.4961 17.9576C45.849 17.9576 45.3242 18.4822 45.3242 19.1294V22.0793L42.413 20.5455V16.359C42.413 15.7118 41.8883 15.1871 41.2411 15.1871C40.594 15.1871 40.0693 15.7118 40.0693 16.359V19.3107L35.8131 17.0683L35.8619 16.3294C36.2819 12.3156 35.6469 8.81694 34.0254 6.21069C32.5837 3.88815 29.6758 -0.000244141 26.3699 -0.000244141C26.356 -0.000244141 26.3424 -0.000244141 26.3287 -0.000244141C23.1936 -0.000244141 20.4351 3.37417 18.6708 6.21069C17.0518 8.81952 16.418 12.3179 16.8379 16.3292L16.8867 17.0681L12.6305 19.3105V16.3589C12.6305 15.7117 12.1059 15.187 11.4586 15.187C10.8114 15.187 10.2868 15.7117 10.2868 16.3589V20.5453L7.3722 22.0808V19.1292C7.3722 18.482 6.84756 17.9573 6.20033 17.9573C5.5531 17.9573 5.02845 18.482 5.02845 19.1292V23.3156L2.56658 24.6126C0.324548 25.5639 0.177594 26.6586 0.219899 27.9891C0.224001 28.1188 0.228571 28.2565 0.228571 28.4035V33.6486C0.228571 34.0167 0.401423 34.3633 0.695446 34.5847C0.900993 34.7395 1.14896 34.8205 1.40056 34.8205C1.50873 34.8205 1.61771 34.8055 1.724 34.7749L3.88646 34.1537C4.50861 33.975 4.86791 33.3259 4.68931 32.7037C4.51072 32.0818 3.86197 31.7225 3.23935 31.901L2.57244 32.0926V28.4039C2.57244 28.2303 2.56752 28.0679 2.56259 27.9148C2.55533 27.6835 2.54513 27.3669 2.5831 27.3019C2.59541 27.2808 2.72607 27.0861 3.51966 26.7548C3.55189 26.7414 3.58341 26.7265 3.61435 26.7102L17.0559 19.6285L17.5944 27.7839L13.358 28.9982C12.7359 29.1765 12.3761 29.8254 12.5545 30.4475C12.7019 30.9619 13.1708 31.2968 13.6804 31.2968C13.7873 31.2968 13.896 31.2821 14.0038 31.2511L17.7523 30.1766L18.3588 39.3605L12.1839 47.4684C11.9761 47.7412 11.8982 48.0914 11.9709 48.4266L12.9043 52.735C13.0531 53.4213 13.7992 53.831 14.4594 53.5848L22.6701 50.5209V51.5334C22.6701 53.5625 24.3208 55.2132 26.3498 55.2132C28.377 55.2132 30.0263 53.5625 30.0263 51.5334V50.5212L37.1062 53.1641V58.8281C37.1062 59.4753 37.631 60 38.2781 60H58.6134C59.2605 60 59.7853 59.4753 59.7853 58.8281V38.4922C59.7854 37.845 59.2606 37.3203 58.6135 37.3203ZM45.9871 39.6641H50.9013V44.6979L49.0608 43.5635C48.6841 43.3314 48.2085 43.3312 47.8315 43.5633L45.9872 44.6988V39.6641H45.9871ZM45.9215 25.0433C45.936 25.0515 45.9509 25.0591 45.9658 25.0666L49.0854 26.7102C49.1164 26.7265 49.1479 26.7414 49.1803 26.7548C49.9737 27.0861 50.1044 27.2808 50.1167 27.3019C50.1545 27.3669 50.1445 27.6835 50.1371 27.9148C50.1323 28.0679 50.1272 28.2303 50.1272 28.4039V32.0937L35.1056 27.784L35.6442 19.6285L45.9215 25.0433ZM27.6827 51.5335C27.6827 52.2703 27.0848 52.8696 26.3499 52.8696C25.6133 52.8696 25.014 52.2702 25.014 51.5335V43.4882C25.014 42.7514 25.6133 42.1521 26.3499 42.1521C27.0848 42.1521 27.6827 42.7514 27.6827 43.4882V51.5335ZM30.0264 48.0194V43.4882C30.0264 41.4592 28.3771 39.8083 26.3499 39.8083C24.3209 39.8083 22.6702 41.4591 22.6702 43.4882V48.0193L14.9084 50.9156L14.376 48.4585L20.4895 40.4312C20.6609 40.2061 20.7452 39.9264 20.7265 39.6441L19.9953 28.5711C19.9949 28.5654 19.9946 28.5596 19.9941 28.5538L19.1752 16.1524C19.1742 16.1371 19.1729 16.1218 19.1712 16.1065C18.8019 12.6084 19.3175 9.61394 20.6617 7.44784C22.6508 4.25015 24.7681 2.34374 26.3295 2.34374H26.3499H26.3703C27.9336 2.34374 30.0496 4.25003 32.0348 7.44796C33.3816 9.61288 33.8982 12.6069 33.5287 16.1065C33.5271 16.1217 33.5258 16.1371 33.5247 16.1524L32.7059 28.5513C32.7052 28.5591 32.7049 28.5668 32.7044 28.5745L31.9734 39.6441C31.9547 39.9265 32.039 40.2061 32.2103 40.4312L37.1061 46.8599V50.6623L30.0264 48.0194ZM57.4416 57.6562H39.4501V39.6641H43.6434V46.7967C43.6434 47.6942 44.6616 48.2676 45.4297 47.7946L48.4455 45.9375L51.4581 47.7943C51.8198 48.0171 52.2737 48.0268 52.6443 47.8199C53.0151 47.6128 53.2449 47.2214 53.2449 46.7967V39.6641H57.4416V57.6562Z" fill="#575756"/>
<path d="M8.62207 30.4045C7.97484 30.4045 7.4502 30.9291 7.4502 31.5764C7.4502 32.2236 7.97484 32.7482 8.62207 32.7482H8.62875C9.27598 32.7482 9.79735 32.2236 9.79735 31.5764C9.79735 30.9291 9.2693 30.4045 8.62207 30.4045Z" fill="#575756"/>
</g>
<defs>
<clipPath id="clip0">
<rect width="60" height="60" fill="white"/>
</clipPath>
</defs>
</svg>
