<svg width="30" height="30" viewBox="0 0 30 30" fill="none" xmlns="http://www.w3.org/2000/svg">
<path d="M0 0V30H30V0H0ZM9.21201 24.749C9.21201 25.1311 8.90229 25.4408 8.52022 25.4408H5.57632C5.19425 25.4408 4.88453 25.1311 4.88453 24.749V12.1901C4.88453 11.808 5.19425 11.4983 5.57632 11.4983H8.52022C8.90229 11.4983 9.21201 11.808 9.21201 12.1901V24.749ZM7.0435 9.57743C5.70666 9.60448 4.53182 8.4879 4.53208 7.06358C4.53208 5.68217 5.66973 4.55519 7.06042 4.55631C8.43445 4.55743 9.56768 5.69231 9.56472 7.07319C9.56143 8.51904 8.36151 9.60889 7.0435 9.57743ZM25.4679 25.1565C25.4679 25.3151 25.3393 25.4437 25.1806 25.4436L21.4184 25.4427C21.2598 25.4426 21.1313 25.3141 21.1313 25.1555V17.4005C21.1313 16.7301 20.8597 16.1229 20.4202 15.6837C19.9749 15.2382 19.3571 14.9651 18.6757 14.9728C17.3408 14.9879 16.276 16.0964 16.276 17.4314V25.1546C16.276 25.3132 16.1474 25.4418 15.9887 25.4417L12.2358 25.4408C12.0772 25.4407 11.9487 25.3122 11.9487 25.1537V11.7855C11.9487 11.6269 12.0773 11.4983 12.2359 11.4983H15.9088C16.0674 11.4983 16.196 11.6269 16.196 11.7855V13.3271C16.1963 13.3264 16.2108 13.3283 16.2354 13.332C16.3064 13.2036 16.3837 13.0793 16.4671 12.9596C17.2326 11.861 18.5052 11.1423 19.9456 11.1423H20.7007C23.3336 11.1423 25.468 13.2766 25.468 15.9096V25.1565H25.4679Z" fill="white"/>
</svg>
