<svg width="100" height="100" viewBox="0 0 100 100" fill="none" xmlns="http://www.w3.org/2000/svg">
<path fill-rule="evenodd" clip-rule="evenodd" d="M90.3596 83.6092C89.3615 83.2014 88.2209 83.6803 87.8131 84.6791C84.9813 91.6133 78.3127 96.0938 70.8236 96.0938C70.4152 96.0938 70.0057 96.0777 69.598 96.0525C69.3648 96.0383 69.1322 96.0156 68.8998 95.993C59.9105 95.0516 52.8334 87.5902 52.4936 78.4383C52.485 78.2096 52.4793 77.9799 52.4793 77.7492C52.4793 67.6342 60.7086 59.4049 70.8238 59.4049C78.3127 59.4049 84.9814 63.8855 87.8131 70.8193C88.2207 71.8182 89.3609 72.2961 90.3598 71.8893C91.3584 71.4814 91.8373 70.3412 91.4295 69.3428C88.2436 61.5412 81.0518 56.3037 72.777 55.5863V12.9125C72.777 11.834 71.9025 10.9594 70.8238 10.9594H61.7379V7.43301C61.7379 6.35449 60.8635 5.47988 59.7848 5.47988H51.1756V1.95312C51.1756 0.874414 50.3012 0 49.2225 0H30.4803C29.4016 0 28.5271 0.874414 28.5271 1.95312V5.47988H19.9178C18.8391 5.47988 17.9646 6.35449 17.9646 7.43301V10.9596H8.87891C7.8002 10.9596 6.92578 11.8342 6.92578 12.9127V98.0469C6.92578 99.1254 7.8002 100 8.87891 100C8.87891 100 70.8189 100 70.8236 100C79.9068 100 87.9951 94.5658 91.4293 86.1557C91.8371 85.1572 91.3582 84.017 90.3596 83.6092ZM21.8709 9.38613H30.4803C31.559 9.38613 32.4334 8.51172 32.4334 7.43301V3.90625H47.2693V7.43301C47.2693 8.51172 48.1437 9.38613 49.2225 9.38613H57.8316V12.9127V16.4393H21.8709V12.9125V9.38613ZM58.2443 96.0938H10.832V14.8656H17.9646V18.3922C17.9646 19.4707 18.8391 20.3453 19.9178 20.3453H59.7848C60.8635 20.3453 61.7379 19.4707 61.7379 18.3922V14.8656H68.8707V55.5836C68.1199 55.6492 67.3715 55.7521 66.6315 55.8945C66.4166 55.9359 66.2025 55.9805 65.9891 56.0289C65.1289 56.223 64.2762 56.4596 63.4455 56.7563C61.634 57.4031 59.9047 58.2689 58.3145 59.3527C57.8617 59.6613 57.4203 59.9875 56.9918 60.3291C55.4375 61.5686 54.0295 63.0289 52.8541 64.6324C51.2053 66.8818 49.9553 69.5115 49.2555 72.2064C48.5453 74.9412 48.2881 77.8014 48.7281 80.6016C49.1441 83.2486 49.883 85.7988 51.1635 88.1623C52.484 90.5996 54.2293 92.802 56.3289 94.6141C56.94 95.1416 57.5789 95.6363 58.2443 96.0938Z" fill="#575756"/>
<path fill-rule="evenodd" clip-rule="evenodd" d="M79.8033 69.4611L67.37 81.8943L61.8439 76.3682C61.0812 75.6057 59.8445 75.6057 59.0818 76.3682C58.3191 77.1309 58.3191 78.3676 59.082 79.1305L65.9892 86.0375C66.3706 86.4188 66.8704 86.6096 67.3702 86.6096C67.87 86.6096 68.37 86.4188 68.7513 86.0375L82.5656 72.2234C83.3283 71.4607 83.3283 70.224 82.5656 69.4611C81.8027 68.6984 80.5659 68.6984 79.8033 69.4611Z" fill="#575756"/>
<path fill-rule="evenodd" clip-rule="evenodd" d="M29.9093 36.4467H59.7847C60.8634 36.4467 61.7378 35.5721 61.7378 34.4936C61.7378 33.4151 60.8634 32.5405 59.7847 32.5405H29.9093C28.8306 32.5405 27.9562 33.4151 27.9562 34.4936C27.9562 35.5723 28.8306 36.4467 29.9093 36.4467Z" fill="#575756"/>
<path fill-rule="evenodd" clip-rule="evenodd" d="M22.018 32.5405H19.9176C18.8389 32.5405 17.9645 33.4151 17.9645 34.4936C17.9645 35.5721 18.8389 36.4467 19.9176 36.4467H22.018C23.0967 36.4467 23.9711 35.5721 23.9711 34.4936C23.9711 33.4151 23.0967 32.5405 22.018 32.5405Z" fill="#575756"/>
<path fill-rule="evenodd" clip-rule="evenodd" d="M29.9093 48.7307H59.7847C60.8634 48.7307 61.7378 47.8561 61.7378 46.7776C61.7378 45.6989 60.8634 44.8245 59.7847 44.8245H29.9093C28.8306 44.8245 27.9562 45.6989 27.9562 46.7776C27.9562 47.8561 28.8306 48.7307 29.9093 48.7307Z" fill="#575756"/>
<path fill-rule="evenodd" clip-rule="evenodd" d="M22.018 44.8245H19.9176C18.8389 44.8245 17.9645 45.6989 17.9645 46.7776C17.9645 47.8561 18.8389 48.7307 19.9176 48.7307H22.018C23.0967 48.7307 23.9711 47.8561 23.9711 46.7776C23.9711 45.6991 23.0967 44.8245 22.018 44.8245Z" fill="#575756"/>
<path fill-rule="evenodd" clip-rule="evenodd" d="M50.3679 59.0615C50.3679 57.983 49.4935 57.1084 48.4148 57.1084H29.9093C28.8306 57.1084 27.9562 57.983 27.9562 59.0615C27.9562 60.14 28.8306 61.0146 29.9093 61.0146H48.4148C49.4935 61.0146 50.3679 60.14 50.3679 59.0615Z" fill="#575756"/>
<path fill-rule="evenodd" clip-rule="evenodd" d="M22.018 57.1084H19.9176C18.8389 57.1084 17.9645 57.983 17.9645 59.0615C17.9645 60.14 18.8389 61.0146 19.9176 61.0146H22.018C23.0967 61.0146 23.9711 60.14 23.9711 59.0615C23.9711 57.9828 23.0967 57.1084 22.018 57.1084Z" fill="#575756"/>
<path fill-rule="evenodd" clip-rule="evenodd" d="M42.6969 69.392H29.9092C28.8305 69.392 27.9561 70.2664 27.9561 71.3451C27.9561 72.4236 28.8305 73.2982 29.9092 73.2982H42.6969C43.7756 73.2982 44.65 72.4236 44.65 71.3451C44.65 70.2666 43.7756 69.392 42.6969 69.392Z" fill="#575756"/>
<path fill-rule="evenodd" clip-rule="evenodd" d="M22.018 69.392H19.9176C18.8389 69.392 17.9645 70.2664 17.9645 71.3451C17.9645 72.4236 18.8389 73.2982 19.9176 73.2982H22.018C23.0967 73.2982 23.9711 72.4236 23.9711 71.3451C23.9711 70.2666 23.0967 69.392 22.018 69.392Z" fill="#575756"/>
<path fill-rule="evenodd" clip-rule="evenodd" d="M91.1211 75.7961C90.0453 75.7961 89.168 76.6735 89.168 77.7493C89.168 78.825 90.0453 79.7024 91.1211 79.7024C92.1969 79.7024 93.0742 78.825 93.0742 77.7493C93.0742 76.6735 92.1969 75.7961 91.1211 75.7961Z" fill="#575756"/>
</svg>
