<svg width="60" height="60" viewBox="0 0 60 60" fill="none" xmlns="http://www.w3.org/2000/svg">
<g clip-path="url(#clip0)">
<path d="M9.80966 14.482C7.32997 14.482 5.31247 12.4634 5.31247 9.98246C5.31247 7.50324 7.32997 5.48621 9.80966 5.48621C12.2912 5.48621 14.31 7.50324 14.31 9.98246C14.31 12.4636 12.2912 14.482 9.80966 14.482ZM9.80966 7.82996C8.6222 7.82996 7.65622 8.79558 7.65622 9.98246C7.65622 11.1712 8.6222 12.1382 9.80966 12.1382C10.9988 12.1382 11.9663 11.1712 11.9663 9.98246C11.9663 8.79558 10.9989 7.82996 9.80966 7.82996Z" fill="#575756"/>
<path d="M58.8281 37.0129H55.4051C56.0937 34.7619 56.4423 32.4252 56.4423 30.0449C56.4423 16.9061 45.7504 6.2168 32.6081 6.2168C27.9888 6.2168 23.4669 7.56961 19.6213 10.0654C19.6212 10.0355 19.6221 10.0062 19.6218 9.97605C19.6186 4.57137 15.2181 0.175781 9.80965 0.175781C4.40297 0.175781 0.00386843 4.57137 0.000704363 9.97605C-0.0465222 14.6471 2.28856 17.7118 4.76086 20.9565C5.00801 21.2809 7.45524 24.1996 7.45524 24.1996C8.06801 24.9075 8.70762 25.2102 9.24422 25.3242C8.93238 26.8757 8.77395 28.4568 8.77395 30.0448C8.77395 43.1836 19.4659 53.8729 32.6081 53.8729C34.1508 53.8729 35.6848 53.7248 37.1864 53.4322V58.6523C37.1864 59.2996 37.7112 59.8242 38.3583 59.8242H43.3314C43.9785 59.8242 44.5032 59.2996 44.5032 58.6523C44.5032 58.0051 43.9785 57.4805 43.3314 57.4805H39.5302V39.3566H43.7241V46.6434C43.7241 47.0681 43.9539 47.4595 44.3246 47.6666C44.6952 47.8736 45.1491 47.8639 45.5107 47.6412L48.5932 45.7418L51.6758 47.6412C51.864 47.7571 52.0772 47.8153 52.2906 47.8153C52.4872 47.8153 52.6841 47.7659 52.862 47.6666C53.2327 47.4595 53.4625 47.0681 53.4625 46.6434V39.3566C53.4625 39.3566 53.7594 39.357 53.762 39.357C53.765 39.357 57.6562 39.3566 57.6562 39.3566V57.4805H53.8552C53.208 57.4805 52.6833 58.0051 52.6833 58.6523C52.6833 59.2996 53.208 59.8242 53.8552 59.8242H58.8281C59.4752 59.8242 60 59.2996 60 58.6523V38.1847C60 37.5375 59.4754 37.0129 58.8281 37.0129ZM19.2416 13.2212C21.2236 11.6468 23.464 10.444 25.8449 9.65496C24.9075 10.7068 24.0404 11.9878 23.2644 13.4849C22.8865 14.214 22.5369 14.9828 22.2158 15.7847C21.0144 15.4502 19.871 15.0561 18.801 14.6059C18.9707 14.1584 19.1206 13.6989 19.2416 13.2212ZM21.4297 17.9963C20.4012 21.2773 19.8076 24.9915 19.7081 28.873H11.1523C11.2324 27.4093 11.4599 25.9582 11.8332 24.5416C11.9488 24.4363 12.0609 24.3225 12.168 24.1989C12.168 24.1989 14.6147 21.281 14.8617 20.9566C15.9255 19.5606 16.9627 18.1971 17.7967 16.7254C18.9374 17.21 20.1537 17.6347 21.4297 17.9963ZM9.80965 23.0412C9.64606 23.0412 9.43383 22.9043 9.22793 22.6664C9.22793 22.6664 6.86754 19.8543 6.6252 19.5361C4.30617 16.4926 2.30356 13.8643 2.34434 9.9948C2.34445 9.9907 2.34445 9.9866 2.34445 9.9825C2.34445 5.86746 5.69332 2.51965 9.80965 2.51965C13.9279 2.51965 17.278 5.86746 17.278 9.9825C17.278 9.9866 17.278 9.9907 17.2781 9.99492C17.319 13.8645 15.3163 16.4927 12.9974 19.5362C12.755 19.8545 10.3952 22.6658 10.3952 22.6658C10.1888 22.9043 9.97512 23.0412 9.80965 23.0412ZM11.1503 31.2168H19.7081C19.8075 35.0953 20.4002 38.8069 21.4274 42.086C19.5875 42.6083 17.8712 43.2632 16.32 44.043C13.3185 40.5573 11.4143 36.1016 11.1503 31.2168ZM18.036 45.8203C19.3141 45.2318 20.7195 44.7258 22.2178 44.31C22.5384 45.1102 22.8873 45.8773 23.2645 46.605C24.0417 48.1043 24.9102 49.3869 25.8493 50.4397C22.9144 49.465 20.2586 47.8737 18.036 45.8203ZM31.4363 51.3911C29.1859 50.8639 27.0572 48.8285 25.3452 45.5263C25.0526 44.9617 24.7785 44.3705 24.5224 43.7564C26.7139 43.3078 29.0493 43.0395 31.4361 42.9731V51.3911H31.4363ZM31.4363 40.628C28.7418 40.6963 26.138 41.0002 23.7046 41.5208C22.7216 38.4369 22.1523 34.9154 22.0529 31.2168H31.4363V40.628ZM31.4363 28.873H22.0529C22.1524 25.1713 22.7225 21.6471 23.7069 18.5613C26.1507 19.085 28.7603 19.3918 31.4361 19.4613V28.873H31.4363ZM31.4363 17.1165C29.0411 17.0513 26.7089 16.7868 24.5202 16.3389C24.7768 15.7228 25.0518 15.1297 25.3453 14.5635C27.0572 11.2611 29.1859 9.22582 31.4364 8.69871V17.1165H31.4363ZM33.78 8.69848C36.0314 9.22547 38.1605 11.2609 39.872 14.5634C40.1646 15.1279 40.4386 15.7192 40.6945 16.3331C38.5028 16.7818 36.1671 17.0502 33.78 17.1165V8.69848ZM37.1864 51.0379C36.0689 51.2801 34.9295 51.4332 33.78 51.4952V42.9738C34.9281 43.0051 36.0673 43.0826 37.1864 43.2052V51.0379ZM42.5967 37.0129H38.3583C37.7112 37.0129 37.1864 37.5375 37.1864 38.1847V40.8477C36.0652 40.7318 34.9262 40.6593 33.78 40.6296V31.2169H43.1616C43.108 33.2017 42.92 35.1437 42.5967 37.0129ZM33.78 28.873V19.4617C36.4747 19.3934 39.0788 19.0894 41.5123 18.5687C42.4949 21.6525 43.0638 25.1739 43.1632 28.873H33.78ZM42.9993 15.7795C42.6787 14.9795 42.33 14.2125 41.9529 13.4849C41.1761 11.9858 40.3077 10.7033 39.3688 9.65062C42.3029 10.6253 44.9582 12.2163 47.1803 14.2693C45.9023 14.8579 44.4973 15.3639 42.9993 15.7795ZM43.7895 18.0035C45.6291 17.4812 47.3453 16.8264 48.8962 16.0466C51.8979 19.5322 53.802 23.988 54.066 28.8729H45.508C45.4086 24.9941 44.8161 21.2825 43.7895 18.0035ZM51.1187 44.5448L49.208 43.3675C48.8311 43.1353 48.3555 43.1352 47.9784 43.3675L46.0678 44.5447V39.3565H51.1187V44.5448ZM52.9404 37.0129H44.9701C45.2753 35.136 45.4546 33.1956 45.5059 31.2168H54.066C53.9592 33.1995 53.5823 35.1416 52.9404 37.0129Z" fill="#575756"/>
<path d="M48.5932 57.4805C47.9461 57.4805 47.4213 58.0051 47.4213 58.6523C47.4213 59.2996 47.9461 59.8242 48.5932 59.8242H48.5999C49.247 59.8242 49.7685 59.2996 49.7685 58.6523C49.7685 58.0051 49.2404 57.4805 48.5932 57.4805Z" fill="#575756"/>
</g>
<defs>
<clipPath id="clip0">
<rect width="60" height="60" fill="white"/>
</clipPath>
</defs>
</svg>
