<svg width="60" height="60" viewBox="0 0 60 60" fill="none" xmlns="http://www.w3.org/2000/svg">
<path d="M58.8281 0H1.17188C0.524648 0 0 0.524648 0 1.17188V49.4531C0 50.1004 0.524648 50.625 1.17188 50.625H34.3075L39.3818 59.4141C39.5372 59.6832 39.7931 59.8796 40.0934 59.96C40.1932 59.9868 40.295 60 40.3966 60C40.6005 60 40.8029 59.9467 40.9826 59.843L48.3244 55.6042C48.8849 55.2806 49.077 54.5638 48.7533 54.0034L46.8028 50.625H58.8281C59.4752 50.625 60 50.1004 60 49.4531V1.17188C60 0.524648 59.4752 0 58.8281 0ZM57.6562 2.34375V9.375H2.34375V2.34375H57.6562ZM40.8255 57.2273L34.7362 46.6804C34.5809 46.4112 34.3249 46.2148 34.0247 46.1344C33.9248 46.1077 33.823 46.0944 33.7214 46.0944C33.5175 46.0944 33.3151 46.1477 33.1355 46.2514L31.1723 47.3849V34.3734L42.4404 40.8791L40.4773 42.0125C39.9168 42.3361 39.7247 43.0529 40.0484 43.6133L46.1377 54.1603L40.8255 57.2273ZM45.4496 48.2812L42.664 43.4564L45.3701 41.8941C45.7327 41.6848 45.956 41.2979 45.956 40.8792C45.956 40.4605 45.7327 40.0737 45.3701 39.8644L44.1166 39.1406H51.0938C51.7409 39.1406 52.2656 38.616 52.2656 37.9688V22.0312C52.2656 21.384 51.7409 20.8594 51.0938 20.8594H35.2734C34.6263 20.8594 34.1016 21.384 34.1016 22.0312C34.1016 22.6785 34.6263 23.2031 35.2734 23.2031H49.9219V36.7969H40.0572L30.5863 31.3289C30.2237 31.1196 29.777 31.1196 29.4144 31.3289C29.0518 31.5382 28.8285 31.925 28.8285 32.3438V36.7969H10.0781V23.2031H24.7266C25.3738 23.2031 25.8984 22.6785 25.8984 22.0312C25.8984 21.384 25.3738 20.8594 24.7266 20.8594H8.90625C8.25902 20.8594 7.73438 21.384 7.73438 22.0312V37.9688C7.73438 38.616 8.25902 39.1406 8.90625 39.1406H28.8286V48.2812H2.34375V11.7188H57.6562V48.2812H45.4496Z" fill="#575756"/>
<path d="M7.5 7.03125C7.8082 7.03125 8.11055 6.90586 8.32852 6.68789C8.54648 6.46992 8.67188 6.16758 8.67188 5.85938C8.67188 5.55117 8.54648 5.24883 8.32852 5.03086C8.11055 4.81289 7.8082 4.6875 7.5 4.6875C7.1918 4.6875 6.88945 4.81289 6.67148 5.03086C6.45352 5.24883 6.32812 5.55117 6.32812 5.85938C6.32812 6.16758 6.45352 6.46992 6.67148 6.68789C6.88945 6.90586 7.1918 7.03125 7.5 7.03125Z" fill="#575756"/>
<path d="M13.125 7.03125C13.4332 7.03125 13.7355 6.90586 13.9535 6.68789C14.1715 6.46992 14.2969 6.16758 14.2969 5.85938C14.2969 5.55117 14.1715 5.24883 13.9535 5.03086C13.7355 4.81289 13.4332 4.6875 13.125 4.6875C12.8168 4.6875 12.5145 4.81289 12.2965 5.03086C12.0785 5.24883 11.9531 5.55117 11.9531 5.85938C11.9531 6.16758 12.0785 6.46992 12.2965 6.68789C12.5145 6.90586 12.8168 7.03125 13.125 7.03125Z" fill="#575756"/>
<path d="M18.75 7.03125C19.0582 7.03125 19.3605 6.90586 19.5785 6.68789C19.7965 6.46992 19.9219 6.16758 19.9219 5.85938C19.9219 5.55117 19.7965 5.24883 19.5785 5.03086C19.3605 4.81289 19.0582 4.6875 18.75 4.6875C18.4418 4.6875 18.1395 4.81289 17.9215 5.03086C17.7035 5.24883 17.5781 5.55117 17.5781 5.85938C17.5781 6.16758 17.7035 6.46992 17.9215 6.68789C18.1395 6.90586 18.4418 7.03125 18.75 7.03125Z" fill="#575756"/>
<path d="M30 7.03125H52.4414C53.0885 7.03125 53.6133 6.5066 53.6133 5.85938C53.6133 5.21215 53.0885 4.6875 52.4414 4.6875H30C29.3528 4.6875 28.8281 5.21215 28.8281 5.85938C28.8281 6.5066 29.3528 7.03125 30 7.03125Z" fill="#575756"/>
<path d="M30.1719 28C29.8637 28 29.5613 28.1254 29.3434 28.3434C29.1254 28.5613 29 28.8637 29 29.1719C29 29.4801 29.1254 29.7824 29.3434 30.0004C29.5613 30.2184 29.8637 30.3438 30.1719 30.3438C30.4801 30.3438 30.7824 30.2184 31.0003 30.0004C31.2182 29.7824 31.3438 29.4801 31.3438 29.1719C31.3438 28.8637 31.2184 28.5613 31.0003 28.3434C30.7824 28.1254 30.4801 28 30.1719 28Z" fill="#575756"/>
</svg>
