<svg width="100" height="100" viewBox="0 0 100 100" fill="none" xmlns="http://www.w3.org/2000/svg">
<g clip-path="url(#clip0)">
<path d="M98.0469 25H48.6708C48.8376 24.0152 48.9258 23.0041 48.9258 21.9727C48.9258 12.0107 40.8213 3.90625 30.8594 3.90625C20.8975 3.90625 12.793 12.0107 12.793 21.9727C12.793 31.2746 19.8596 38.9562 28.9063 39.9332V65.1916H8.70728C7.62856 65.1916 6.75415 66.066 6.75415 67.1447C6.75415 68.2234 7.62856 69.0979 8.70728 69.0979H28.9063V94.1406C28.9063 95.2193 29.7807 96.0938 30.8594 96.0938H57.4219C58.5004 96.0938 59.375 95.2193 59.375 94.1406C59.375 93.0619 58.5004 92.1875 57.4219 92.1875H32.8125V39.9332C39.4711 39.2141 45.0565 34.8629 47.5415 28.9062H53.9063V46.7447C53.9063 47.5354 54.3829 48.248 55.1137 48.5498C55.845 48.8518 56.6854 48.6834 57.243 48.123L64.4532 40.8857L71.6633 48.1232C72.0372 48.4984 72.5379 48.698 73.0473 48.698C73.2983 48.698 73.5514 48.6496 73.7926 48.55C74.5233 48.2482 75.0001 47.5355 75.0001 46.7449V28.9062H96.0938V92.1875H75.0001C73.9215 92.1875 73.0469 93.0619 73.0469 94.1406C73.0469 95.2193 73.9215 96.0938 75.0001 96.0938H98.0469C99.1254 96.0938 100 95.2193 100 94.1406V26.9531C100 25.8744 99.1254 25 98.0469 25ZM30.8594 36.1328C23.0514 36.1328 16.6993 29.7807 16.6993 21.9727C16.6993 14.1646 23.0514 7.8125 30.8594 7.8125C38.6674 7.8125 45.0196 14.1646 45.0196 21.9727C45.0196 29.7807 38.6674 36.1328 30.8594 36.1328ZM71.0938 42.0168L65.8368 36.7398C65.4704 36.3719 64.9725 36.1652 64.4532 36.1652C63.9338 36.1652 63.436 36.3721 63.0696 36.7398L57.8125 42.0168V28.9062H71.0938V42.0168Z" fill="#575756"/>
<path d="M86.8025 79.6448C86.8025 78.5661 85.9279 77.6917 84.8494 77.6917H70.3461C69.2676 77.6917 68.3929 78.5661 68.3929 79.6448C68.3929 80.7235 69.2676 81.5979 70.3461 81.5979H84.8494C85.9279 81.5979 86.8025 80.7235 86.8025 79.6448Z" fill="#575756"/>
<path d="M84.8495 72.2229C85.928 72.2229 86.8026 71.3485 86.8026 70.2698V61.676C86.8026 60.5973 85.928 59.7229 84.8495 59.7229H64.537C63.4585 59.7229 62.5839 60.5973 62.5839 61.676V70.2698C62.5839 71.3485 63.4585 72.2229 64.537 72.2229H84.8495ZM66.4901 63.6292H82.8964V68.3167H66.4901V63.6292Z" fill="#575756"/>
<path d="M1.95312 56.5979H5.33027C6.40898 56.5979 7.2834 55.7235 7.2834 54.6448C7.2834 53.5661 6.40898 52.6917 5.33027 52.6917H1.95312C0.874414 52.6917 0 53.5661 0 54.6448C0 55.7235 0.874414 56.5979 1.95312 56.5979Z" fill="#575756"/>
<path d="M20.8985 56.5979C21.9772 56.5979 22.8516 55.7235 22.8516 54.6448C22.8516 53.5661 21.9772 52.6917 20.8985 52.6917H15.0817C14.003 52.6917 13.1285 53.5661 13.1285 54.6448C13.1285 55.7235 14.003 56.5979 15.0817 56.5979H20.8985Z" fill="#575756"/>
<path d="M20.8984 77.6917H1.95312C0.874414 77.6917 0 78.5661 0 79.6448C0 80.7235 0.874414 81.5979 1.95312 81.5979H20.8984C21.9771 81.5979 22.8516 80.7235 22.8516 79.6448C22.8516 78.5661 21.9771 77.6917 20.8984 77.6917Z" fill="#575756"/>
<path d="M66.2109 92.1875C65.6973 92.1875 65.1934 92.3965 64.8301 92.7598C64.4668 93.123 64.2578 93.627 64.2578 94.1406C64.2578 94.6543 64.4666 95.1582 64.8301 95.5215C65.1936 95.8848 65.6973 96.0938 66.2109 96.0938C66.7246 96.0938 67.2285 95.8848 67.5916 95.5215C67.9549 95.1582 68.1641 94.6543 68.1641 94.1406C68.1641 93.627 67.9551 93.123 67.5916 92.7598C67.2285 92.3965 66.7246 92.1875 66.2109 92.1875Z" fill="#575756"/>
<path d="M34.6662 17.7349L30.6273 21.7738L29.266 20.4122C28.5033 19.6495 27.2666 19.6495 26.5037 20.4122C25.741 21.1749 25.741 22.4116 26.5037 23.1745L29.2462 25.9171C29.6277 26.2986 30.1275 26.4892 30.6273 26.4892C31.1271 26.4892 31.6271 26.2986 32.0083 25.9171L37.4283 20.4972C38.191 19.7345 38.191 18.4978 37.4283 17.7349C36.6658 16.972 35.4289 16.972 34.6662 17.7349Z" fill="#575756"/>
</g>
<defs>
<clipPath id="clip0">
<rect width="100" height="100" fill="white"/>
</clipPath>
</defs>
</svg>
