<svg width="60" height="60" viewBox="0 0 60 60" fill="none" xmlns="http://www.w3.org/2000/svg">
<path fill-rule="evenodd" clip-rule="evenodd" d="M58.8281 44.8541H58.828H52.5902H47.8405C47.1934 44.8541 46.6686 45.3789 46.6686 46.026C46.6686 46.6731 47.1934 47.1979 47.8405 47.1979H51.4184V50.8244H34.2907V47.1979H38.4654C39.1125 47.1979 39.6373 46.6731 39.6373 46.026C39.6373 45.3789 39.1125 44.8541 38.4654 44.8541H33.1188H26.8809H7.40965H1.17188C0.524766 44.8541 0 45.3789 0 46.026V51.9962C0 52.6433 0.524766 53.1681 1.17188 53.1681H7.40965H12.274C12.9211 53.1681 13.4459 52.6433 13.4459 51.9962C13.4459 51.349 12.9211 50.8244 12.274 50.8244H8.58152V47.1979H25.7091V50.8244H21.649C21.0018 50.8244 20.4771 51.349 20.4771 51.9962C20.4771 52.6433 21.0018 53.1681 21.649 53.1681H26.8809H33.1188H52.5902H58.828H58.8281C59.4752 53.1681 60 52.6433 60 51.9962V46.026C60 45.3789 59.4752 44.8541 58.8281 44.8541ZM6.23777 50.8245H2.34375V47.198H6.23777V50.8245ZM28.0529 50.8245V47.198H31.9471V50.8245H28.0529ZM53.7621 50.8245V47.198H57.6561V50.8245H53.7621Z" fill="#575756"/>
<path fill-rule="evenodd" clip-rule="evenodd" d="M58.8281 6.83185H52.3796H46.0579H39.6094H33.1609H26.8392H20.3906C19.7435 6.83185 19.2188 7.35661 19.2188 8.00372V23.6229H13.9423H7.62023H1.17188C0.524766 23.6229 0 24.1477 0 24.7948V41.586C0 42.2331 0.524766 42.7579 1.17188 42.7579H20.3905H20.3906H39.6094H58.8281C59.4752 42.7579 60 42.2331 60 41.586V24.7949V24.7948V8.00372C60 7.35661 59.4752 6.83185 58.8281 6.83185ZM57.6562 23.6229H52.3796H46.0579H40.7812V9.1756H44.8859V13.4658C44.8859 14.1129 45.4106 14.6377 46.0577 14.6377H52.3795C53.0266 14.6377 53.5514 14.1129 53.5514 13.4658V9.1756H57.6562V23.6229ZM47.2296 25.9668H51.2077V29.0852H47.2296V25.9668ZM28.011 25.9668H31.9889V29.0852H28.011V25.9668ZM21.5625 25.9668H25.6672V30.257C25.6672 30.9042 26.192 31.4289 26.8391 31.4289H33.1608C33.8079 31.4289 34.3327 30.9042 34.3327 30.257V25.9668H38.4375V40.4142H21.5625V25.9668ZM51.2078 9.1756V12.294H47.2297V9.1756H51.2078ZM31.989 9.1756V12.294H28.0111V9.1756H31.989ZM25.6672 9.1756V13.4658C25.6672 14.1129 26.192 14.6377 26.8391 14.6377H33.1608C33.8079 14.6377 34.3327 14.1129 34.3327 13.4658V9.1756H38.4375V23.6229H33.1609H26.8392H21.5625V9.1756H25.6672ZM12.7703 25.9667V29.0852H8.79211V25.9667H12.7703ZM2.34375 25.9667H6.44836V30.257C6.44836 30.9042 6.97301 31.4289 7.62023 31.4289H13.942C14.5891 31.4289 15.1139 30.9042 15.1139 30.257V25.9667H19.2185V40.4142H2.34375V25.9667ZM40.7812 40.4143V25.9668H44.8859V30.257C44.8859 30.9042 45.4106 31.4289 46.0577 31.4289H52.3795C53.0266 31.4289 53.5514 30.9042 53.5514 30.257V25.9668H57.6562V40.4142H40.7812V40.4143Z" fill="#575756"/>
<path fill-rule="evenodd" clip-rule="evenodd" d="M16.9614 50.8246C16.316 50.8246 15.7896 51.351 15.7896 51.9965C15.7896 52.6419 16.316 53.1683 16.9614 53.1683C17.607 53.1683 18.1333 52.6419 18.1333 51.9965C18.1333 51.351 17.607 50.8246 16.9614 50.8246Z" fill="#575756"/>
<path fill-rule="evenodd" clip-rule="evenodd" d="M44.3247 46.0259C44.3247 45.3805 43.7984 44.8541 43.1528 44.8541C42.5074 44.8541 41.981 45.3805 41.981 46.0259C41.981 46.6714 42.5074 47.1978 43.1528 47.1978C43.7984 47.1978 44.3247 46.6714 44.3247 46.0259Z" fill="#575756"/>
</svg>
