<svg width="60" height="60" viewBox="0 0 60 60" fill="none" xmlns="http://www.w3.org/2000/svg">
<path d="M59.6235 22.5558L58.0606 19.8487C57.7371 19.2883 57.0209 19.0963 56.4599 19.4198C55.8994 19.7434 55.7073 20.4601 56.031 21.0205L57.5939 23.7276C57.6764 23.8703 57.658 24.0063 57.6397 24.0746C57.6214 24.1429 57.5693 24.2699 57.4265 24.3523L53.2937 26.7384C53.075 26.8643 52.795 26.7892 52.6689 26.571L44.3547 12.1707C44.2286 11.9523 44.3037 11.672 44.5221 11.5458L48.6549 9.15979C48.8733 9.03393 49.1538 9.1087 49.2798 9.32713L50.7577 11.887C51.0814 12.4476 51.7981 12.6397 52.3585 12.3159C52.919 11.9924 53.111 11.2757 52.7874 10.7152L51.3094 8.15529C50.5373 6.81787 48.821 6.35769 47.4831 7.13005L43.3503 9.51614C42.7224 9.87871 42.288 10.4493 42.0835 11.091H30.3675C28.7226 11.091 27.1761 11.7315 26.0128 12.8947L24.8124 14.0951C23.7599 13.8442 22.6815 13.7152 21.5971 13.7152H17.9593C17.7775 13.0131 17.326 12.3813 16.6499 11.9908L12.517 9.60473C11.869 9.23057 11.1139 9.13131 10.3914 9.3249C9.66874 9.51849 9.06466 9.98207 8.69061 10.63L0.376534 25.0303C0.00248275 25.6783 -0.0970063 26.4332 0.0965814 27.1559C0.290169 27.8787 0.753748 28.4827 1.40178 28.8568L5.53461 31.2429C5.97464 31.4969 6.45545 31.6176 6.93039 31.6176C7.10347 31.6176 7.27561 31.6008 7.44483 31.5694L10.8275 34.9522C10.7757 35.2181 10.7488 35.4908 10.7488 35.7678C10.7488 36.8938 11.1873 37.9526 11.9836 38.7487C12.746 39.511 13.7301 39.9191 14.7303 39.9743C14.7149 40.1213 14.7066 40.2696 14.7066 40.4194C14.7066 41.5455 15.1451 42.6042 15.9414 43.4003C16.7376 44.1966 17.7963 44.6351 18.9223 44.6351C18.9529 44.6351 18.9831 44.6336 19.0136 44.6329C19.0129 44.6633 19.0113 44.6936 19.0113 44.7241C19.0113 45.8503 19.4498 46.9089 20.2461 47.7051C21.0424 48.5013 22.101 48.9398 23.227 48.9398C23.2576 48.9398 23.2878 48.9383 23.3183 48.9376C23.3176 48.9681 23.3161 48.9983 23.3161 49.0289C23.3161 50.1549 23.7546 51.2137 24.5509 52.0098C25.3471 52.806 26.4058 53.2446 27.5318 53.2446C28.6578 53.2446 29.7166 52.8061 30.5127 52.0098L32.1798 50.3429C32.6685 49.8541 33.0107 49.2738 33.2089 48.657C33.9495 49.2035 34.8295 49.4769 35.7099 49.4768C36.7893 49.4767 37.8692 49.0658 38.6908 48.244C39.1825 47.7523 39.5373 47.1604 39.7372 46.5146C40.4156 46.9581 41.208 47.1967 42.0374 47.1967C43.1634 47.1967 44.2222 46.7582 45.0183 45.962C45.61 45.3702 46.0037 44.6336 46.1672 43.832C46.5904 43.9722 47.0376 44.0461 47.4964 44.0461C48.6224 44.0461 49.6813 43.6076 50.4774 42.8112C52.1211 41.1675 52.1211 38.493 50.4774 36.8493L47.7424 34.1142L52.7347 29.1218C52.8456 29.1351 52.9573 29.1426 53.0694 29.1426C53.5444 29.1426 54.0253 29.0219 54.4652 28.7679L58.598 26.3819C59.2459 26.0078 59.7095 25.4038 59.9032 24.681C60.0969 23.9582 59.9976 23.2037 59.6235 22.5558ZM2.5735 26.8271C2.43077 26.7447 2.37874 26.6178 2.36046 26.5494C2.34218 26.4811 2.32378 26.3452 2.40628 26.2023L10.7204 11.8018C10.8027 11.6591 10.9298 11.6071 10.9981 11.5888C11.0273 11.581 11.0687 11.5732 11.1177 11.5732C11.1837 11.5732 11.2633 11.5874 11.3451 11.6345L15.4779 14.0206C15.6962 14.1467 15.7714 14.427 15.6454 14.6454L7.33128 29.0458C7.20507 29.2641 6.925 29.3393 6.70645 29.2132L2.5735 26.8271ZM13.0925 35.7677C13.0925 35.2675 13.2873 34.7975 13.6409 34.4438L14.6522 33.4325C15.0171 33.0675 15.4965 32.8851 15.976 32.8851C16.4553 32.8851 16.9348 33.0676 17.2998 33.4325C17.6534 33.7862 17.8482 34.2562 17.8482 34.7563C17.8482 35.2563 17.6534 35.7264 17.2998 36.08L16.2885 37.0913C15.5585 37.8213 14.3709 37.8212 13.6409 37.0913C13.2873 36.7378 13.0925 36.2677 13.0925 35.7677ZM18.9224 42.2914C18.4223 42.2914 17.9522 42.0966 17.5987 41.7431C17.245 41.3896 17.0503 40.9194 17.0503 40.4194C17.0503 39.9194 17.245 39.4492 17.5987 39.0957L19.2656 37.4287C19.6305 37.0638 20.1099 36.8814 20.5893 36.8814C21.0689 36.8814 21.5483 37.0638 21.9132 37.4287C22.2668 37.7823 22.4616 38.2524 22.4616 38.7525C22.4616 39.2525 22.2668 39.7226 21.9132 40.0762L20.2462 41.7431C19.8926 42.0968 19.4224 42.2914 18.9224 42.2914ZM23.2271 46.5963C22.727 46.5963 22.257 46.4015 21.9034 46.048C21.5498 45.6944 21.355 45.2243 21.355 44.7243C21.355 44.2242 21.5498 43.7541 21.9034 43.4004L23.5704 41.7335C23.9353 41.3686 24.4147 41.1861 24.8941 41.1861C25.3735 41.1861 25.853 41.3686 26.2179 41.7336C26.5716 42.0872 26.7663 42.5573 26.7663 43.0573C26.7663 43.5573 26.5716 44.0275 26.2179 44.381L24.551 46.048C24.1974 46.4015 23.7273 46.5963 23.2271 46.5963ZM30.5227 48.6858L28.8556 50.3528C28.5021 50.7064 28.032 50.9011 27.5319 50.9011C27.0318 50.9011 26.5617 50.7064 26.2082 50.3528C25.8545 49.9992 25.6598 49.5292 25.6598 49.0291C25.6598 48.529 25.8545 48.059 26.2082 47.7053L27.8751 46.0384C28.24 45.6733 28.7194 45.4909 29.199 45.4909C29.6782 45.4909 30.1578 45.6735 30.5227 46.0382C31.2526 46.7681 31.2526 47.9558 30.5227 48.6858ZM48.8205 41.1543C48.4668 41.5079 47.9968 41.7027 47.4966 41.7027C46.9966 41.7027 46.5266 41.5079 46.1729 41.1543L34.9877 29.9691C34.5301 29.5116 33.7883 29.5115 33.3304 29.9691C32.8728 30.4267 32.8728 31.1687 33.3304 31.6263L43.3613 41.6573C43.715 42.0109 43.9097 42.481 43.9097 42.981C43.9097 43.4811 43.715 43.9512 43.3613 44.3049C43.0078 44.6584 42.5378 44.8532 42.0376 44.8532C41.5375 44.8532 41.0675 44.6584 40.7139 44.3049L28.6603 32.2512C28.2027 31.7937 27.4606 31.7937 27.0029 32.2512C26.5453 32.7088 26.5453 33.4508 27.0029 33.9084L37.0339 43.9395C37.3875 44.293 37.5823 44.7632 37.5823 45.2632C37.5823 45.7632 37.3875 46.2334 37.0339 46.5869C36.304 47.3168 35.1164 47.3171 34.3863 46.5869L32.1802 44.3808C32.1772 44.3778 32.1738 44.3752 32.1707 44.3722C31.3268 43.5333 30.2135 43.1268 29.1078 43.1506C29.1085 43.1195 29.11 43.0886 29.11 43.0573C29.11 41.9313 28.6715 40.8725 27.8752 40.0763C27.0302 39.2313 25.9128 38.8219 24.8029 38.8457C24.8036 38.8147 24.8051 38.7837 24.8051 38.7526C24.8051 37.6264 24.3666 36.5678 23.5704 35.7715C22.6463 34.8474 21.3963 34.443 20.1869 34.558C20.1385 33.5065 19.7062 32.5247 18.957 31.7754C17.3132 30.1317 14.6386 30.1321 12.9949 31.7754L11.9836 32.7867C11.9824 32.7879 11.9812 32.7892 11.9801 32.7904L9.37789 30.1882L17.5354 16.0589H21.597C21.995 16.0589 22.3919 16.08 22.7865 16.121L21.447 17.4605C20.6507 18.2568 20.2122 19.3155 20.2122 20.4415C20.2122 21.5677 20.6507 22.6263 21.447 23.4226C22.2689 24.2444 23.3485 24.6554 24.4279 24.6554C25.5075 24.6554 26.5872 24.2445 27.409 23.4226L30.5725 20.2591L48.8203 38.5068C49.5503 39.2367 49.5503 40.4244 48.8205 41.1543ZM37.5617 23.9335C39.2669 22.6993 40.3122 20.7077 40.3122 18.5439C40.3122 17.8967 39.7874 17.372 39.1404 17.372C38.4933 17.372 37.9685 17.8967 37.9685 18.5439C37.9685 20.0746 37.16 21.4709 35.8699 22.2418L31.4066 17.7785C30.9489 17.3209 30.2081 17.309 29.7504 17.7666L25.7518 21.7653C25.0218 22.4952 23.8342 22.4951 23.1042 21.7653C22.7506 21.4117 22.5558 20.9416 22.5558 20.4415C22.5558 19.9415 22.7506 19.4714 23.1042 19.1177L27.6701 14.5519C28.3905 13.8314 29.3485 13.4347 30.3675 13.4347H42.3783L50.6391 27.743C50.6587 27.7769 50.68 27.8091 50.7008 27.8418L46.0854 32.4572L37.5617 23.9335Z" fill="#575756"/>
<path d="M54.4094 17.0403C54.7176 17.0403 55.0188 16.9149 55.2379 16.6969C55.4558 16.4778 55.5813 16.1766 55.5813 15.8684C55.5813 15.559 55.4559 15.2579 55.2379 15.0387C55.0188 14.8208 54.7176 14.6965 54.4094 14.6965C54.1 14.6965 53.7989 14.8208 53.5809 15.0387C53.3618 15.2579 53.2375 15.559 53.2375 15.8684C53.2375 16.1766 53.3618 16.4778 53.5809 16.6969C53.7989 16.915 54.1 17.0403 54.4094 17.0403Z" fill="#575756"/>
</svg>
