<svg width="60" height="60" viewBox="0 0 60 60" fill="none" xmlns="http://www.w3.org/2000/svg">
<path d="M7.22388 31.2963H31.4937C32.1409 31.2963 32.6656 30.7715 32.6656 30.1244V22.9827C32.6656 22.3356 32.1409 21.8108 31.4937 21.8108H7.22388C6.57677 21.8108 6.052 22.3356 6.052 22.9827V30.1244C6.052 30.7717 6.57665 31.2963 7.22388 31.2963ZM8.39575 24.1545H30.3219V28.9526H8.39575V24.1545Z" fill="#575756"/>
<path d="M6 53.3386C6 53.9857 6.52477 54.5105 7.17187 54.5105H31.4417C32.0889 54.5105 32.6136 53.9857 32.6136 53.3386V35.1719C32.6136 34.5248 32.0889 34 31.4417 34H7.17187C6.52477 34 6 34.5248 6 35.1719V53.3386ZM24.5224 36.3438H30.2698V40.0557H24.5224V36.3438ZM24.5224 42.3993H30.2698V46.1112H24.5224V42.3993ZM24.5224 48.455H30.2698V52.1668H24.5224V48.455ZM16.4347 36.3438H22.1788V40.0557H16.4347V36.3438ZM16.4347 42.3993H22.1788V46.1112H16.4347V42.3993ZM16.4347 48.455H22.1788V52.1668H16.4347V48.455ZM8.34375 36.3438H14.091V40.0557H8.34375V36.3438ZM8.34375 42.3993H14.091V46.1112H8.34375V42.3993ZM8.34375 48.455H14.091V52.1668H8.34375V48.455Z" fill="#575756"/>
<path d="M45.3851 42.3514C46.3381 42.3514 47.2065 41.985 47.8565 41.387C48.5066 41.985 49.3749 42.3514 50.3281 42.3514C52.339 42.3514 53.9749 40.7259 53.9749 38.7279C53.9749 36.73 52.339 35.1046 50.3281 35.1046C49.3749 35.1046 48.5066 35.4709 47.8565 36.069C47.2066 35.4709 46.3381 35.1046 45.3851 35.1046C43.376 35.1046 41.7416 36.73 41.7416 38.7279C41.7416 40.7259 43.3761 42.3514 45.3851 42.3514ZM50.3281 37.4485C51.0466 37.4485 51.6311 38.0225 51.6311 38.7281C51.6311 39.4336 51.0466 40.0077 50.3281 40.0077C49.6115 40.0077 49.0284 39.4338 49.0284 38.7281C49.0284 38.0225 49.6115 37.4485 50.3281 37.4485ZM45.3851 37.4485C46.1017 37.4485 46.6847 38.0225 46.6847 38.7281C46.6847 39.4336 46.1017 40.0077 45.3851 40.0077C44.6685 40.0077 44.0853 39.4338 44.0853 38.7281C44.0853 38.0225 44.6685 37.4485 45.3851 37.4485Z" fill="#575756"/>
<path d="M16.2692 8.0904H22.4514C23.0985 8.0904 23.6233 7.56563 23.6233 6.91852C23.6233 6.27141 23.0985 5.74664 22.4514 5.74664H16.2692C15.6221 5.74664 15.0973 6.27141 15.0973 6.91852C15.0973 7.56563 15.6221 8.0904 16.2692 8.0904Z" fill="#575756"/>
<path d="M16.2692 12.7774H22.4514C23.0985 12.7774 23.6233 12.2526 23.6233 11.6055C23.6233 10.9584 23.0985 10.4337 22.4514 10.4337H16.2692C15.6221 10.4337 15.0973 10.9584 15.0973 11.6055C15.0973 12.2526 15.6221 12.7774 16.2692 12.7774Z" fill="#575756"/>
<path d="M56.3428 23.3555H37.9735V15.233C37.9735 13.1911 36.3047 11.5298 34.2532 11.5298H28.2548V8.0107H33.2719C33.919 8.0107 34.4437 7.48594 34.4437 6.83883V4.24113C34.4437 1.90254 32.53 0 30.1775 0C29.962 0 13.1313 0 13.1313 0C11.6597 0 10.4625 1.1918 10.4625 2.65676V11.53H4.46765C2.4144 11.53 0.743896 13.1912 0.743896 15.2331V29.9984C0.743896 30.6455 1.26866 31.1702 1.91577 31.1702C2.56288 31.1702 3.08765 30.6455 3.08765 29.9984V15.233C3.08765 14.4834 3.70675 13.8736 4.46765 13.8736H10.4625V16.5458H7.98397C7.33686 16.5458 6.8121 17.0706 6.8121 17.7177C6.8121 18.3648 7.33686 18.8896 7.98397 18.8896H11.6344H27.083H30.4219C31.069 18.8896 31.5937 18.3648 31.5937 17.7177C31.5937 17.0706 31.069 16.5458 30.4219 16.5458H28.2548V13.8736H34.2532C35.0123 13.8736 35.6298 14.4833 35.6298 15.233V56.2969C35.6298 57.0464 35.0122 57.6562 34.2532 57.6562H4.46765C3.70675 57.6562 3.08765 57.0465 3.08765 56.2969V41.0268C3.08765 40.3797 2.56288 39.8549 1.91577 39.8549C1.26866 39.8549 0.743896 40.3797 0.743896 41.0268V56.2969C0.743896 58.3387 2.4144 60 4.46765 60H34.2532C36.3047 60 37.9735 58.3387 37.9735 56.2969V47.1912H56.3428C57.9492 47.1912 59.2561 45.892 59.2561 44.2952V26.2514C59.2561 24.6546 57.9492 23.3555 56.3428 23.3555ZM28.2548 4.64637V4.24113C28.2548 3.19488 29.1172 2.34375 30.1774 2.34375C31.2375 2.34375 32.0999 3.195 32.0999 4.24113V5.66695H28.2547V4.64637H28.2548ZM25.9111 4.24113V16.5458H12.8062V2.65676C12.8062 2.48707 12.9552 2.34375 13.1312 2.34375H26.3637C26.0748 2.91516 25.9111 3.55934 25.9111 4.24113ZM56.9123 44.2952C56.9123 44.5945 56.6515 44.8474 56.3428 44.8474H37.9735V30.828H56.9123V44.2952ZM56.9123 28.4843H37.9735V25.6992H56.3428C56.6516 25.6992 56.9123 25.9521 56.9123 26.2514V28.4843Z" fill="#575756"/>
<path d="M1.91577 36.9367C2.56288 36.9367 3.08765 36.412 3.08765 35.7649V35.7582C3.08765 35.1111 2.56288 34.5896 1.91577 34.5896C1.26866 34.5896 0.743896 35.1176 0.743896 35.7648C0.743896 36.4119 1.26854 36.9367 1.91577 36.9367Z" fill="#575756"/>
</svg>
