<svg width="100" height="100" viewBox="0 0 100 100" fill="none" xmlns="http://www.w3.org/2000/svg">
<path d="M88.2812 21.875C81.8077 21.875 76.5625 27.1187 76.5625 33.5938V37.5H62.439C67.1455 29.451 69.5312 23.4146 69.5312 19.5312C69.5312 8.7616 60.7697 0 50 0C39.2303 0 30.4688 8.7616 30.4688 19.5312C30.4688 23.4146 32.8545 29.4518 37.561 37.5C35.9756 37.5 24.8085 37.5 23.4375 37.5V33.5938C23.4375 27.1317 18.1808 21.875 11.7188 21.875C5.24521 21.875 0 27.1187 0 33.5938V44.5312C0 45.61 0.874328 46.4844 1.95312 46.4844C3.03192 46.4844 3.90625 45.61 3.90625 44.5312V33.5938C3.90625 29.2786 7.4028 25.7812 11.7188 25.7812C16.0263 25.7812 19.5312 29.2862 19.5312 33.5938V79.554C17.4568 77.6947 14.7171 76.5625 11.7188 76.5625C8.71964 76.5625 5.98145 77.6962 3.90625 79.5563V60.1562C3.90625 59.0775 3.03192 58.2031 1.95312 58.2031C0.874328 58.2031 0 59.0775 0 60.1562V88.2812C0 94.9821 5.78461 100 12.2757 100H88.2812C94.7433 100 100 94.7433 100 88.2812V33.5938C100 27.1317 94.7433 21.875 88.2812 21.875ZM80.4688 33.5938C80.4688 29.2786 83.9653 25.7812 88.2812 25.7812C92.5888 25.7812 96.0938 29.2862 96.0938 33.5938V79.5006C94.751 78.3051 93.1343 77.4155 91.3712 76.9608C87.4565 75.9483 83.429 76.9012 80.4688 79.5448C80.4688 77.8748 80.4688 35.9383 80.4688 33.5938ZM76.5625 60.9375H51.5625C45.0172 54.705 32.5165 42.7986 31.0555 41.4062H39.9284C44.1925 48.2178 48.3925 53.846 48.436 53.9047C48.8052 54.3976 49.3843 54.6875 50 54.6875C50.6157 54.6875 51.1948 54.3976 51.564 53.9047C51.6075 53.846 55.8083 48.2178 60.0716 41.4062H76.5625V60.9375ZM50 3.90625C58.6159 3.90625 65.625 10.9154 65.625 19.5312C65.625 26.783 54.1855 43.5524 50 49.4118C45.7489 43.4593 34.375 26.7166 34.375 19.5312C34.375 10.9154 41.3841 3.90625 50 3.90625ZM3.90625 88.2812C3.90625 83.9737 7.41119 80.4688 11.7188 80.4688C16.0263 80.4688 19.5312 83.9737 19.5312 88.2812C19.5312 89.36 20.4056 90.2344 21.4844 90.2344C22.5632 90.2344 23.4375 89.36 23.4375 88.2812V55.7289L43.2617 74.6094L20.7031 96.0938H12.2757C7.89566 96.0938 3.90625 92.82 3.90625 88.2812ZM47.4403 76.0239C47.8279 75.6546 48.0469 75.1434 48.0469 74.6094C48.0469 74.0753 47.8279 73.5634 47.4403 73.1949L23.4375 50.3349V41.4062H25.3906C25.5241 41.5337 48.5039 63.4193 49.4347 64.3051C49.7978 64.6507 50.28 64.8438 50.7812 64.8438H76.5625V72.6562H61.7188C61.2007 72.6562 60.704 72.8622 60.3378 73.2285L37.4718 96.0938H26.3672L47.4403 76.0239ZM88.2812 96.0938H42.997L62.5282 76.5625H76.5625V88.2812C76.5625 89.36 77.4368 90.2344 78.5156 90.2344C79.5944 90.2344 80.4688 89.36 80.4688 88.2812C80.4688 83.2298 85.199 79.4006 90.3946 80.7426C93.5661 81.562 96.0938 84.491 96.0938 88.2812C96.0938 92.5888 92.5888 96.0938 88.2812 96.0938Z" fill="#575756"/>
<path d="M50 29.2969C55.3848 29.2969 59.7656 24.9161 59.7656 19.5312C59.7656 14.1464 55.3848 9.76562 50 9.76562C44.6152 9.76562 40.2344 14.1464 40.2344 19.5312C40.2344 24.9161 44.6152 29.2969 50 29.2969ZM50 13.6719C53.231 13.6719 55.8594 16.3002 55.8594 19.5312C55.8594 22.7623 53.231 25.3906 50 25.3906C46.769 25.3906 44.1406 22.7623 44.1406 19.5312C44.1406 16.3002 46.769 13.6719 50 13.6719Z" fill="#575756"/>
<path d="M1.95312 54.2969C3.03116 54.2969 3.90625 53.4218 3.90625 52.3438C3.90625 51.2657 3.03116 50.3906 1.95312 50.3906C0.875092 50.3906 0 51.2657 0 52.3438C0 53.4218 0.875092 54.2969 1.95312 54.2969Z" fill="#575756"/>
</svg>
