<svg width="100" height="100" viewBox="0 0 100 100" fill="none" xmlns="http://www.w3.org/2000/svg">
<path d="M84.6285 54.4306C83.8883 54.4306 83.1801 54.0075 82.8518 53.2905C82.0244 51.4845 80.542 50.1079 78.6777 49.4143C76.8137 48.7204 74.794 48.7942 72.9908 49.6222C72.0104 50.0722 70.851 49.6421 70.4012 48.6616C69.9512 47.6813 70.3813 46.5218 71.3615 46.072C74.1147 44.8083 77.1967 44.6952 80.04 45.7532C82.8816 46.8106 85.1414 48.9097 86.4031 51.6636C86.8524 52.6442 86.4217 53.8034 85.441 54.2526C85.1772 54.3735 84.9006 54.4306 84.6285 54.4306Z" fill="#575756"/>
<path d="M18.5638 17.4119V49.9986C18.5638 51.0771 19.4383 51.9517 20.517 51.9517C21.5957 51.9517 22.4701 51.0773 22.4701 49.9986V17.4119C22.4701 16.3334 21.5957 15.4587 20.517 15.4587C19.4383 15.4587 18.5638 16.3334 18.5638 17.4119Z" fill="#575756"/>
<path d="M30.5475 46.5164V17.4119C30.5475 16.3333 29.673 15.4587 28.5943 15.4587C27.5156 15.4587 26.6412 16.3332 26.6412 17.4119V46.5164C26.6412 47.5949 27.5156 48.4695 28.5943 48.4695C29.673 48.4695 30.5475 47.5949 30.5475 46.5164Z" fill="#575756"/>
<path d="M34.7188 45.463C34.7188 46.5416 35.5932 47.4162 36.6719 47.4162C37.7506 47.4162 38.625 46.5417 38.625 45.463V45.3132C38.625 44.2347 37.7506 43.3601 36.6719 43.3601C35.5932 43.3601 34.7188 44.2345 34.7188 45.3132V45.463Z" fill="#575756"/>
<path d="M36.6719 38.9878C37.7506 38.9878 38.625 38.1134 38.625 37.0347V17.4119C38.625 16.3333 37.7506 15.4587 36.6719 15.4587C35.5932 15.4587 34.7188 16.3332 34.7188 17.4119V37.0349C34.7188 38.1134 35.5932 38.9878 36.6719 38.9878Z" fill="#575756"/>
<path d="M46.7023 49.9986V17.4119C46.7023 16.3334 45.8279 15.4587 44.7492 15.4587C43.6705 15.4587 42.7961 16.3332 42.7961 17.4119V49.9986C42.7961 51.0771 43.6705 51.9517 44.7492 51.9517C45.8279 51.9515 46.7023 51.0771 46.7023 49.9986Z" fill="#575756"/>
<path d="M52.8267 38.9878C53.9054 38.9878 54.7798 38.1134 54.7798 37.0347V17.4119C54.7798 16.3333 53.9054 15.4587 52.8267 15.4587C51.748 15.4587 50.8736 16.3332 50.8736 17.4119V37.0349C50.8736 38.1134 51.748 38.9878 52.8267 38.9878Z" fill="#575756"/>
<path d="M50.8736 45.463C50.8736 46.5416 51.748 47.4162 52.8267 47.4162C53.9054 47.4162 54.7798 46.5417 54.7798 45.463V45.3132C54.7798 44.2347 53.9054 43.3601 52.8267 43.3601C51.748 43.3601 50.8736 44.2345 50.8736 45.3132V45.463Z" fill="#575756"/>
<path d="M24.9502 9.6438C24.9502 8.56528 24.0758 7.69067 22.9971 7.69067H9.6326C8.55389 7.69067 7.67947 8.56509 7.67947 9.6438V23.029C7.67947 24.1075 8.55389 24.9821 9.6326 24.9821C10.7113 24.9821 11.5857 24.1077 11.5857 23.029V11.5967H22.9972C24.0758 11.5967 24.9502 10.7223 24.9502 9.6438Z" fill="#575756"/>
<path d="M7.67947 59.7795C7.67947 60.858 8.55389 61.7326 9.6326 61.7326H22.9972C24.076 61.7326 24.9504 60.8582 24.9504 59.7795C24.9504 58.7008 24.076 57.8264 22.9972 57.8264H11.5857V46.3945C11.5857 45.316 10.7113 44.4414 9.6326 44.4414C8.55389 44.4414 7.67947 45.3158 7.67947 46.3945V59.7795Z" fill="#575756"/>
<path d="M79.866 24.9819C80.9447 24.9819 81.8191 24.1075 81.8191 23.0288V9.6438C81.8191 8.56528 80.9447 7.69067 79.866 7.69067H66.5013C65.4226 7.69067 64.5482 8.56509 64.5482 9.6438C64.5482 10.7225 65.4226 11.5969 66.5013 11.5969H77.9129V23.0292C77.9129 24.1075 78.7873 24.9819 79.866 24.9819Z" fill="#575756"/>
<path d="M99.3346 89.6652L94.4625 79.0691C94.2461 78.5984 93.8514 78.2328 93.3652 78.0531C92.8789 77.8734 92.3414 77.8947 91.8709 78.1111L88.8109 79.5207L85.9617 73.2896C94.5221 68.2814 98.0744 57.4574 93.8605 48.2434C92.793 45.9102 91.309 43.8521 89.4978 42.1437V5.28555C89.4978 2.37109 87.1291 0 84.2176 0H5.28105C2.36933 0 0.000579834 2.37109 0.000579834 5.28555V25.9287C0.000579834 27.0072 0.874994 27.8818 1.9537 27.8818C3.03242 27.8818 3.90683 27.0074 3.90683 25.9287V5.28555C3.90683 4.525 4.52324 3.90625 5.28105 3.90625H84.2176C84.9754 3.90625 85.5918 4.525 85.5918 5.28555V39.2891C84.734 38.8139 83.8354 38.3986 82.8994 38.0504C79.0098 36.6027 74.8582 36.4309 70.9348 37.5137V17.4119C70.9348 16.3334 70.0603 15.4588 68.9816 15.4588C67.9029 15.4588 67.0285 16.3332 67.0285 17.4119V39.0535C65.4834 39.8619 64.0889 40.8545 62.8572 41.9904V17.4119C62.8572 16.3334 61.9828 15.4588 60.9041 15.4588C59.8254 15.4588 58.951 16.3332 58.951 17.4119V47.0014C56.0955 52.24 55.652 58.7158 58.3195 64.5453C58.4703 64.8752 58.6314 65.1982 58.7986 65.517H5.28105C4.52324 65.517 3.90683 64.8982 3.90683 64.1377V43.4945C3.90683 42.416 3.03242 41.5414 1.9537 41.5414C0.874994 41.5414 0.000579834 42.4158 0.000579834 43.4945V64.1377C0.000579834 67.052 2.36933 69.4232 5.28085 69.4232H61.4918C63.5898 71.7875 66.2469 73.6164 69.292 74.7479C71.5068 75.5709 73.8063 75.9805 76.0998 75.9805C78.2332 75.9805 80.3611 75.6246 82.4113 74.9182L85.2633 81.1549L82.1936 82.5691C81.2144 83.0203 80.7859 84.1791 81.2361 85.1586L86.1096 95.7633C86.9254 97.5301 88.3846 98.8738 90.218 99.5477C91.0396 99.8498 91.8908 99.9998 92.7381 99.9998C93.7729 99.9998 94.8018 99.7758 95.7635 99.3301C99.408 97.6533 101.01 93.318 99.3346 89.6652ZM82.6002 70.6412C78.8076 72.3818 74.5646 72.5395 70.6527 71.0863C66.7324 69.6295 63.6141 66.7295 61.8721 62.9203C58.2789 55.0684 61.7344 45.7523 69.575 42.1533C73.3732 40.4113 77.6217 40.2541 81.5373 41.7111C83.2943 42.365 84.8885 43.3107 86.2713 44.4961C86.2838 44.5068 86.2955 44.5184 86.3082 44.5287C87.99 45.9797 89.3564 47.7869 90.3086 49.8682C93.9014 57.7246 90.4436 67.0432 82.6002 70.6412ZM94.126 95.784C93.3197 96.1576 92.4101 96.192 91.5652 95.8814C90.7119 95.568 90.0336 94.9443 89.6572 94.1291L85.6002 85.3006L91.7301 82.4766L95.785 91.2955C96.5629 92.9914 95.8209 95.0041 94.126 95.784Z" fill="#575756"/>
<path d="M1.9537 36.6701C3.03242 36.6701 3.90683 35.7901 3.90683 34.7115C3.90683 33.633 3.03242 32.7584 1.9537 32.7584C0.874994 32.7584 0.000579834 33.6328 0.000579834 34.7115V34.7227C0.000579834 35.8012 0.874994 36.6701 1.9537 36.6701Z" fill="#575756"/>
</svg>
