<svg width="60" height="60" viewBox="0 0 60 60" fill="none" xmlns="http://www.w3.org/2000/svg">
<path d="M20.0038 46.2363C17.5861 46.5114 15.8433 48.7041 16.1187 51.1242C16.2522 52.2947 16.8339 53.3436 17.7569 54.0778C18.5459 54.7054 19.5029 55.0382 20.4954 55.0382C20.6639 55.0382 20.8332 55.0286 21.003 55.0093C23.4207 54.734 25.1636 52.5415 24.8882 50.1214C24.6124 47.7039 22.4214 45.9617 20.0038 46.2363ZM20.7376 52.6806C20.1892 52.7432 19.6487 52.5878 19.2157 52.2435C18.7827 51.8991 18.5098 51.4072 18.4473 50.8589C18.3181 49.723 19.1352 48.6939 20.2687 48.565C20.3478 48.556 20.4265 48.5515 20.5043 48.5515C21.5416 48.5515 22.4391 49.3323 22.5592 50.3865C22.6886 51.5224 21.8715 52.5516 20.7376 52.6806Z" fill="#F7A70A"/>
<path d="M39.3624 40.6989L32.2839 41.5061C31.6409 41.5794 31.1789 42.1601 31.2523 42.8031C31.3205 43.4011 31.8273 43.8423 32.4151 43.8423C32.4594 43.8423 32.5042 43.8399 32.5493 43.8347L39.6278 43.0276C40.2708 42.9543 40.7327 42.3735 40.6594 41.7305C40.586 41.0875 40.0054 40.6249 39.3624 40.6989Z" fill="#F7A70A"/>
<path d="M42.1591 50.6568C41.5118 50.6568 40.9872 51.1814 40.9872 51.8287C40.9872 52.4759 41.5118 53.0005 42.1591 53.0005H42.1657C42.813 53.0005 43.3343 52.4759 43.3343 51.8287C43.3343 51.1814 42.8063 50.6568 42.1591 50.6568Z" fill="#F7A70A"/>
<path d="M59.5596 47.2242C59.3229 45.1557 57.4477 43.6646 55.3795 43.9012L54.8629 43.9601L52.747 25.3876C52.7119 25.0788 52.5554 24.7966 52.3123 24.6031C52.069 24.4097 51.7588 24.3212 51.45 24.356L44.0407 25.2007L41.9382 6.7622C41.903 6.45342 41.7466 6.17124 41.5033 5.97776C41.26 5.78441 40.9503 5.6957 40.641 5.73062L22.2034 7.83352L21.8886 5.07192C21.7167 3.55917 20.9619 2.2011 19.7634 1.24803C18.5651 0.295313 17.0718 -0.134876 15.5594 0.0371527L3.7633 1.37916C1.69427 1.61611 0.203551 3.49167 0.440384 5.55976C0.676278 7.62551 2.55019 9.11822 4.62087 8.88643L14.5906 7.74715L16.3374 23.068L11.4556 29.4592C11.2717 29.6999 11.1882 30.0025 11.2225 30.3034L12.914 45.1304C11.589 46.9603 10.9147 49.2694 11.1892 51.6852C11.472 54.1729 12.7071 56.4016 14.6673 57.9605C16.3429 59.2933 18.3766 60 20.4869 60C20.8445 60 21.2044 59.9797 21.5651 59.9387C24.9498 59.5515 27.7105 57.3984 29.0332 54.5063L37.0669 53.5909C37.7099 53.5176 38.1718 52.9369 38.0985 52.2939C38.0252 51.6509 37.4454 51.1889 36.8015 51.2623L29.7655 52.0641C29.8918 51.2535 29.9152 50.414 29.8175 49.5604C29.803 49.433 29.7845 49.3067 29.765 49.1807L53.9461 46.4236C53.9522 46.423 53.9581 46.4232 53.9641 46.4225C53.9709 46.4217 53.9774 46.4201 53.9842 46.4192L55.6453 46.2299C56.429 46.1398 57.1414 46.7059 57.2311 47.4906C57.3208 48.2752 56.7551 48.9868 55.9708 49.0765L47.2548 50.0698C46.6118 50.143 46.1498 50.7238 46.2232 51.3668C46.2914 51.9648 46.7982 52.4061 47.386 52.4061C47.4303 52.4061 47.4751 52.4037 47.5202 52.3985L53.5842 51.7075L54.024 54.8882C54.1058 55.4802 54.6125 55.9087 55.1935 55.9087C55.2474 55.9087 55.302 55.9051 55.3569 55.8974C56.0037 55.808 56.4555 55.2113 56.3661 54.5645L55.9341 51.4397L56.2368 51.4053C58.3053 51.1682 59.796 49.2929 59.5596 47.2242ZM33.1555 8.94326L33.6336 13.1387L32.1004 12.4076C31.6961 12.2149 31.2172 12.2693 30.8666 12.5482L29.5348 13.6075L29.0564 9.41072L33.1555 8.94326ZM26.7279 9.67638L27.4456 15.9731C27.4939 16.3964 27.7678 16.76 28.1614 16.923C28.306 16.9829 28.4583 17.0122 28.6097 17.0122C28.8704 17.0122 29.1284 16.9252 29.3393 16.7576L31.7525 14.8383L34.533 16.1641C34.9175 16.3475 35.3712 16.3078 35.718 16.0603C36.0647 15.8129 36.25 15.3968 36.2017 14.9736L35.4841 8.67772L39.7424 8.1921L41.712 25.4659L24.4375 27.435L22.4688 10.1621L26.7279 9.67638ZM40.7683 33.3248L38.714 32.345C38.3098 32.1521 37.8308 32.2067 37.4802 32.4855L35.6971 33.9035L35.0916 28.5795L40.1608 28.0016L40.7683 33.3248ZM4.35755 6.55748C3.57112 6.64537 2.85851 6.07854 2.76886 5.2934C2.67898 4.50896 3.24475 3.79752 4.02896 3.70776L10.183 3.00758L10.5083 5.8546L4.35755 6.55748ZM15.4891 5.28555L12.837 5.58859L12.5119 2.74274L15.8244 2.36587C16.715 2.26462 17.5962 2.51903 18.3048 3.08246C19.013 3.64577 19.4589 4.44626 19.56 5.33699L22.2393 28.8421C22.24 28.8498 22.2398 28.8574 22.2407 28.8652C22.2416 28.8729 22.2434 28.8803 22.2444 28.888L23.7177 41.8134C22.776 41.4687 21.7833 41.2771 20.7695 41.2503L16.7865 6.31725C16.7513 6.00835 16.5948 5.72617 16.3515 5.53281C16.1081 5.3391 15.7978 5.25063 15.4891 5.28555ZM16.7205 26.4276L18.4366 41.4786C17.1802 41.7622 16.0302 42.2949 15.0316 43.0163L13.6046 30.5068L16.7205 26.4276ZM21.2994 57.61C19.4327 57.822 17.5959 57.2951 16.1262 56.1262C14.6563 54.9571 13.7301 53.286 13.5181 51.4205C13.0803 47.5682 15.8571 44.0759 19.7083 43.6354C21.5739 43.4235 23.411 43.9505 24.8807 45.1193C26.3506 46.2883 27.2768 47.9595 27.4889 49.8258C27.9293 53.6772 25.1525 57.1693 21.2994 57.61ZM29.111 46.8963C28.5079 45.4975 27.5656 44.2602 26.3394 43.2851C26.3051 43.2579 26.2696 43.233 26.2352 43.2064L24.703 29.7639L32.7629 28.8451L33.6072 36.2692C33.6554 36.6925 33.9295 37.0562 34.3229 37.2193C34.4675 37.2792 34.6199 37.3086 34.7713 37.3086C35.0321 37.3086 35.29 37.2217 35.5009 37.054L38.3658 34.7758L41.6677 36.3506C42.0523 36.534 42.5059 36.4943 42.8528 36.2469C43.1997 35.9996 43.3848 35.5833 43.3366 35.1602L42.4894 27.7364L50.551 26.8175L52.5343 44.2255L29.111 46.8963Z" fill="#F7A70A"/>
</svg>
