<svg width="60" height="60" viewBox="0 0 60 60" fill="none" xmlns="http://www.w3.org/2000/svg">
<g clip-path="url(#clip0)">
<path d="M26.25 0H8.75004C3.92496 0 0 3.92496 0 8.75004V51.2501C0 56.075 3.92496 60 8.75004 60H11.25C11.94 60 12.5 59.44 12.5 58.75C12.5 58.06 11.94 57.4999 11.25 57.4999H8.75004C5.30508 57.4999 2.50008 54.6949 2.50008 51.25V8.75004C2.50008 5.30508 5.30508 2.50008 8.75004 2.50008H26.25C29.695 2.50008 32.5 5.30508 32.5 8.75004V21.2501C32.5 21.9401 33.06 22.5001 33.75 22.5001C34.44 22.5001 35 21.9401 35 21.2501V8.75004C35 3.92496 31.075 0 26.25 0Z" fill="#575756"/>
<path d="M33.75 9.99994H1.25004C0.560039 9.99994 0 10.56 0 11.25C0 11.94 0.560039 12.5 1.25004 12.5H33.75C34.44 12.5 35 11.94 35 11.25C35 10.56 34.44 9.99994 33.75 9.99994Z" fill="#575756"/>
<path d="M22.5 45H1.25004C0.560039 45 0 45.56 0 46.25C0 46.94 0.560039 47.5001 1.25004 47.5001H22.5C23.19 47.5001 23.75 46.94 23.75 46.25C23.75 45.56 23.19 45 22.5 45Z" fill="#575756"/>
<path d="M21.2499 5.00006H13.7499C13.0599 5.00006 12.4999 5.5601 12.4999 6.2501C12.4999 6.9401 13.0599 7.50002 13.7499 7.50002H21.2499C21.9399 7.50002 22.5 6.93998 22.5 6.24998C22.5 5.55998 21.9399 5.00006 21.2499 5.00006Z" fill="#575756"/>
<path d="M26.3001 5.00006H26.2751C25.5851 5.00006 25.0376 5.5601 25.0376 6.2501C25.0376 6.9401 25.6101 7.50002 26.3001 7.50002C26.9901 7.50002 27.5501 6.93998 27.5501 6.24998C27.5501 5.55998 26.9901 5.00006 26.3001 5.00006Z" fill="#575756"/>
<path d="M56.425 33.0875L47.025 22.7575C45.165 20.8975 42.135 20.8951 40.2576 22.7725C39.6626 23.3675 39.2576 24.08 39.0476 24.8401C37.1776 23.41 34.4801 23.5501 32.7576 25.2726C32.1651 25.8676 31.7601 26.5801 31.545 27.3376C29.6751 25.9076 26.9775 26.0476 25.2576 27.7726C24.675 28.3551 24.275 29.0526 24.0575 29.7901L19.6275 25.36C17.7675 23.5 14.7375 23.4976 12.86 25.375C10.9976 27.2351 10.9976 30.2651 12.86 32.1275L29.88 49.1475L19.785 50.7324C17.0575 51.1224 15 53.4925 15 56.25C15 58.3175 16.6825 60 18.75 60H42.3225C45.9951 60 49.4475 58.57 52.045 55.9725L55.9775 52.04C58.5726 49.4475 60 45.9975 60 42.33C60 38.9049 58.7301 35.6225 56.425 33.0875ZM54.21 50.2725L50.2776 54.205C48.1526 56.3299 45.3276 57.4999 42.3225 57.4999H18.75C18.06 57.4999 17.5 56.9399 17.5 56.2499C17.5 54.7298 18.6349 53.4224 20.155 53.2024L32.6925 51.2324C33.1575 51.1598 33.54 50.8324 33.6876 50.3849C33.8325 49.9399 33.7151 49.4474 33.3825 49.1149L14.625 30.3575C13.7375 29.4701 13.7375 28.0275 14.64 27.125C15.085 26.6825 15.6675 26.46 16.25 26.46C16.8326 26.46 17.415 26.6825 17.8601 27.1275L30.3676 39.635C30.8551 40.1225 31.6477 40.1225 32.1352 39.635C32.3776 39.39 32.5002 39.0701 32.5002 38.75C32.5002 38.43 32.3778 38.1101 32.1352 37.8675L27.0277 32.76C26.1402 31.8725 26.1402 30.4299 27.0427 29.5275C27.9277 28.6425 29.3752 28.6425 30.2602 29.5275L35.3677 34.635C35.8552 35.1225 36.6477 35.1225 37.1352 34.635C37.3777 34.3899 37.5003 34.07 37.5003 33.75C37.5003 33.4299 37.3778 33.11 37.1453 32.8775L34.5377 30.27C33.6503 29.3825 33.6503 27.9399 34.5528 27.0375C35.4378 26.1525 36.8853 26.1525 37.7703 27.0375L40.3778 29.645C40.3803 29.6475 40.3803 29.6475 40.3803 29.6475L40.3827 29.6499C40.3852 29.6524 40.3852 29.6524 40.3852 29.6524C40.3876 29.6549 40.3876 29.6549 40.3876 29.6549H40.3901C40.3926 29.6549 40.3926 29.6573 40.3926 29.6573C40.8825 30.1199 41.655 30.1124 42.135 29.6324C42.6225 29.1449 42.6225 28.3523 42.135 27.8648L42.0276 27.7574C41.5976 27.3274 41.3601 26.7548 41.3601 26.1473C41.3601 25.5398 41.595 24.9698 42.0401 24.5249C42.9276 23.6399 44.3701 23.6423 45.2176 24.4823L54.5776 34.7699C56.4601 36.8423 57.5002 39.5273 57.5002 42.3299C57.5001 45.33 56.3325 48.15 54.21 50.2725Z" fill="#575756"/>
</g>
<defs>
<clipPath id="clip0">
<rect width="60" height="60" fill="white"/>
</clipPath>
</defs>
</svg>
