<svg width="60" height="60" viewBox="0 0 60 60" fill="none" xmlns="http://www.w3.org/2000/svg">
<path d="M49.9523 44.6034C47.4764 44.6034 45.4621 42.5905 45.4621 40.1164C45.4621 37.6424 47.4764 35.6295 49.9523 35.6295C52.4264 35.6295 54.4393 37.6424 54.4393 40.1164C54.4393 42.5905 52.4264 44.6034 49.9523 44.6034ZM49.9523 37.9732C48.7686 37.9732 47.8058 38.9346 47.8058 40.1164C47.8058 41.2983 48.7687 42.2597 49.9523 42.2597C51.1342 42.2597 52.0956 41.2983 52.0956 40.1164C52.0956 38.9346 51.1342 37.9732 49.9523 37.9732Z" fill="#575756"/>
<path d="M21.2215 20.0496V11.7843H40.8705C44.5545 11.7843 47.5514 14.7798 47.5514 18.4617C47.5514 22.1456 44.5545 25.1426 40.8705 25.1426H32.7954C32.1483 25.1426 31.6235 25.6673 31.6235 26.3145C31.6235 26.9616 32.1483 27.4863 32.7954 27.4863H40.8705C45.8467 27.4863 49.8952 23.4379 49.8952 18.4617C49.8952 13.4875 45.8467 9.44051 40.8705 9.44051H21.2215V1.17188C21.2215 0.524766 20.6967 0 20.0496 0H1.17188C0.524766 0 0 0.524766 0 1.17188V20.0496C0 20.6967 0.524766 21.2215 1.17188 21.2215H20.0496C20.6967 21.2215 21.2215 20.6967 21.2215 20.0496ZM8.41266 2.34375H12.8088V6.78281L11.2273 5.80805C10.8505 5.5759 10.375 5.57566 9.99797 5.80781L8.41277 6.78387V2.34375H8.41266ZM18.8777 18.8777H2.34375V2.34375H6.06891V8.88176C6.06891 9.30633 6.29859 9.69773 6.66926 9.90481C7.04004 10.1119 7.49391 10.1024 7.8552 9.87949L10.6119 8.18191L13.3657 9.87926C13.5539 9.99527 13.7672 10.0535 13.9806 10.0535C14.1772 10.0535 14.3741 10.0041 14.5519 9.90481C14.9227 9.69773 15.1525 9.30633 15.1525 8.88164V2.34375H18.8776V18.8777H18.8777Z" fill="#575756"/>
<path d="M55.1628 50.8273C57.5605 47.6768 59.7771 44.6567 59.7309 40.1101C59.7278 34.719 55.3423 30.3346 49.9523 30.3346C44.5605 30.3346 40.1736 34.7196 40.1703 40.1107C40.1245 44.6568 42.3412 47.6776 44.7407 50.8273C42.3766 51.488 40.7544 52.5804 40.1565 53.9094H10.9379C8.93917 53.9094 7.31308 52.285 7.31308 50.2881C7.31308 48.2893 8.93917 46.6632 10.9379 46.6632H26.8327C30.1237 46.6632 32.8012 43.9873 32.8012 40.6981C32.8012 37.407 30.1237 34.7295 26.8327 34.7295H11.9776C9.98074 34.7295 8.35617 33.1049 8.35617 31.108C8.35617 29.1111 9.98074 27.4866 11.9776 27.4866H22.2719C22.9191 27.4866 23.4438 26.9618 23.4438 26.3147C23.4438 25.6676 22.9191 25.1428 22.2719 25.1428H11.9776C8.68839 25.1428 6.01242 27.8188 6.01242 31.108C6.01242 34.3972 8.68839 37.0732 11.9776 37.0732H26.8327C28.8314 37.0732 30.4575 38.6993 30.4575 40.6981C30.4575 42.6949 28.8314 44.3195 26.8327 44.3195H10.9379C7.64683 44.3195 4.96933 46.997 4.96933 50.2881C4.96933 53.5772 7.64683 56.2532 10.9379 56.2532H40.155C40.6076 57.2672 41.6564 58.1515 43.2185 58.8106C45.0366 59.5775 47.428 60 49.9523 60C52.4753 60 54.8658 59.5775 56.6834 58.8104C58.822 57.9076 60 56.5833 60 55.0811C60 53.2283 58.1898 51.6736 55.1628 50.8273ZM42.514 40.1289C42.5141 40.1248 42.5141 40.1207 42.5141 40.1166C42.5141 36.0151 45.8509 32.6783 49.9523 32.6783C54.0519 32.6783 57.3872 36.0151 57.3872 40.1166C57.3872 40.1207 57.3872 40.1248 57.3873 40.1289C57.4281 43.9854 55.4325 46.6054 53.122 49.6388C52.881 49.9552 50.5312 52.7564 50.5312 52.7564C50.3286 52.9904 50.1182 53.1268 49.9522 53.1319C49.7232 53.1252 49.4898 52.8945 49.3718 52.7583C49.3718 52.7583 47.0263 49.9594 46.7865 49.6451C44.472 46.6095 42.4732 43.9881 42.514 40.1289ZM49.9523 57.6563C44.9654 57.6563 42.245 55.955 42.245 55.0811C42.245 54.4853 43.5562 53.413 46.3559 52.849L47.5978 54.29C48.4398 55.2628 49.3386 55.4716 49.9446 55.4756H49.9521C49.9521 55.4756 49.9573 55.4756 49.9597 55.4756C50.5641 55.4716 51.4611 55.2628 52.3041 54.289L53.5474 52.8489C56.3455 53.413 57.656 54.4854 57.656 55.0811C57.6562 55.955 54.937 57.6563 49.9523 57.6563Z" fill="#575756"/>
<path d="M26.3617 26.3145C26.3617 26.9616 26.8865 27.4863 27.5336 27.4863H27.5369C28.184 27.4863 28.7071 26.9616 28.7071 26.3145C28.7071 25.6673 28.1807 25.1426 27.5335 25.1426C26.8862 25.1426 26.3617 25.6672 26.3617 26.3145Z" fill="#575756"/>
</svg>
