<svg width="30" height="30" viewBox="0 0 30 30" fill="none" xmlns="http://www.w3.org/2000/svg">
<path d="M0 0V30H30V0H0ZM23.7819 10.7922C23.7887 10.9683 23.7925 11.1451 23.7925 11.3232C23.7925 18.455 18.0107 24.2374 10.8783 24.2374C8.33939 24.2374 5.97109 23.5046 3.97452 22.2383C3.97405 22.2383 3.97359 22.2382 3.9732 22.2381L3.97452 22.2383C7.87767 22.8204 10.6271 20.3367 10.6271 20.3367C7.14928 20.0662 6.4621 17.1718 6.4621 17.1718C7.69092 17.3799 8.46118 17.0881 8.46118 17.0881C4.5467 16.1723 4.87965 12.5901 4.87965 12.5901C5.78611 13.1318 6.83693 13.1736 6.83693 13.1736C3.38035 10.1331 5.54623 7.17634 5.54623 7.17634C9.17021 11.565 14.4972 11.8636 14.847 11.878C14.7702 11.5481 14.7296 11.2046 14.7296 10.8516C14.7296 8.35026 16.758 6.32241 19.2613 6.32241C20.5663 6.32241 21.742 6.8734 22.5692 7.75615C22.7985 7.69184 23.0208 7.62246 23.2332 7.55189C24.5164 7.12394 25.4329 6.63477 25.4329 6.63477C25.2118 7.95983 23.5781 9.0718 23.4613 9.14987C23.4569 9.15297 23.4544 9.15422 23.4544 9.15422C23.4569 9.15422 23.46 9.15362 23.4625 9.15362C24.7307 9.02677 26.0264 8.4883 26.0264 8.4883C25.6354 9.3103 24.0398 10.5891 23.7819 10.7922Z" fill="white"/>
</svg>
